<svg id="svg" version="1.1" xmlns="http://www.w3.org/2000/svg" xmlns:xlink="http://www.w3.org/1999/xlink" width="400" height="400" viewBox="0, 0, 400,400"><g id="svgg"><path id="path0" d="M9.798 150.900 C 9.678 151.395,9.630 172.140,9.690 197.000 L 9.800 242.200 157.800 242.294 C 250.646 242.353,306.024 242.247,306.400 242.009 C 307.060 241.591,307.343 153.427,306.692 151.100 L 306.385 150.000 158.200 150.000 L 10.015 150.000 9.798 150.900 M62.058 155.596 C 69.055 156.266,76.125 157.801,80.100 159.514 L 82.400 160.505 82.400 170.879 C 82.400 180.574,82.354 181.240,81.700 181.043 C 79.138 180.269,74.547 179.217,72.000 178.820 C 70.350 178.562,68.025 178.183,66.833 177.976 C 59.058 176.627,48.435 177.904,44.679 180.639 C 37.178 186.102,36.593 204.358,43.720 210.592 C 47.163 213.605,54.046 215.250,60.000 214.483 L 62.200 214.200 62.200 211.400 L 62.200 208.600 57.000 208.400 L 51.800 208.200 51.693 198.228 C 51.610 190.517,51.701 188.183,52.093 187.934 C 52.962 187.382,84.962 187.522,85.520 188.080 C 85.880 188.440,86.000 193.346,86.000 207.699 L 86.000 226.838 84.989 227.776 C 79.962 232.434,65.294 236.800,54.669 236.800 C 27.190 236.800,13.844 221.178,15.711 191.200 C 17.236 166.735,27.769 157.621,57.258 155.253 C 57.619 155.224,59.779 155.378,62.058 155.596 M134.469 157.226 C 135.641 157.460,137.590 157.847,138.800 158.086 C 151.046 160.501,158.420 170.857,158.392 185.600 C 158.375 195.035,156.004 201.748,150.950 206.676 C 147.426 210.112,147.429 208.841,150.928 215.243 C 152.539 218.189,154.720 222.220,155.776 224.200 C 156.832 226.180,158.224 228.740,158.870 229.888 C 159.804 231.547,160.020 232.368,159.922 233.888 L 159.800 235.800 146.800 235.800 L 133.800 235.800 128.412 225.100 L 123.024 214.400 121.112 214.400 L 119.200 214.400 119.200 224.720 C 119.200 232.213,119.069 235.171,118.720 235.520 C 118.212 236.028,97.108 236.246,95.833 235.757 C 95.262 235.538,95.200 231.677,95.200 196.157 L 95.200 156.800 113.769 156.800 C 125.307 156.800,133.146 156.961,134.469 157.226 M189.365 157.500 C 189.485 157.885,190.488 161.755,191.592 166.100 C 192.696 170.445,194.488 177.465,195.573 181.700 C 201.482 204.755,200.991 203.045,201.381 201.957 C 201.491 201.651,202.677 197.080,204.016 191.800 C 205.356 186.520,207.447 178.330,208.663 173.600 C 209.879 168.870,211.339 163.155,211.907 160.900 L 212.941 156.800 225.070 156.800 L 237.200 156.800 237.200 158.101 C 237.200 158.816,236.673 161.201,236.029 163.401 C 234.935 167.134,234.467 168.683,232.400 175.400 C 230.543 181.434,229.882 183.601,228.800 187.200 C 227.718 190.799,227.057 192.966,225.200 199.000 C 224.760 200.430,224.040 202.770,223.600 204.200 C 221.743 210.234,221.082 212.401,220.000 216.000 C 218.932 219.553,218.508 220.942,216.371 227.900 C 215.914 229.385,215.258 231.590,214.911 232.800 C 213.952 236.151,214.604 236.001,201.024 235.994 C 187.492 235.987,188.320 236.157,187.411 233.200 C 186.698 230.880,186.492 230.204,183.200 219.400 C 180.687 211.152,179.844 208.392,178.800 205.000 C 177.756 201.608,176.913 198.848,174.400 190.600 C 171.887 182.352,171.044 179.592,170.000 176.200 C 169.560 174.770,168.827 172.385,168.371 170.900 C 166.004 163.187,165.200 160.043,165.200 158.501 L 165.200 156.800 177.173 156.800 C 188.226 156.800,189.163 156.854,189.365 157.500 M267.651 185.496 L 267.502 213.991 284.051 214.096 L 300.600 214.200 300.600 224.800 L 300.600 235.400 290.400 235.643 C 265.005 236.250,244.463 236.065,244.014 235.226 C 243.547 234.354,243.408 157.525,243.873 157.061 C 244.022 156.911,249.467 156.836,255.973 156.894 L 267.800 157.000 267.651 185.496 M119.500 178.630 C 119.335 178.797,119.200 181.887,119.200 185.498 L 119.200 192.062 124.500 191.931 C 132.339 191.737,134.398 190.329,134.399 185.159 C 134.400 182.405,133.307 180.558,130.995 179.405 C 129.331 178.576,120.165 177.958,119.500 178.630 " stroke="none" fill="#464636" fill-rule="evenodd"></path><path id="path1" d="M0.000 200.000 L 0.000 400.000 200.000 400.000 L 400.000 400.000 400.000 200.000 L 400.000 0.000 200.000 0.000 L 0.000 0.000 0.000 200.000 M306.283 149.448 C 307.064 149.657,307.179 149.989,307.283 152.342 L 307.400 155.000 308.903 154.868 C 310.261 154.749,310.618 154.947,312.603 156.916 C 314.857 159.153,315.924 159.585,319.211 159.596 C 321.061 159.601,322.033 160.331,323.192 162.584 C 324.516 165.159,325.638 166.157,327.904 166.774 C 330.855 167.577,332.000 169.005,332.000 171.880 C 332.000 173.520,333.066 175.010,335.377 176.602 L 337.600 178.133 337.600 181.712 L 337.600 185.290 339.400 187.685 C 341.472 190.442,341.500 190.604,340.320 193.122 C 339.204 195.505,339.204 197.695,340.320 200.078 C 341.500 202.596,341.472 202.758,339.400 205.515 L 337.600 207.910 337.600 211.536 L 337.600 215.162 335.700 216.462 C 332.635 218.559,332.261 219.108,331.819 222.150 C 331.479 224.491,330.346 225.768,328.064 226.383 C 326.155 226.897,324.406 228.262,323.609 229.861 C 321.987 233.112,321.345 233.600,318.680 233.601 C 315.833 233.603,314.444 234.279,311.994 236.855 C 310.638 238.281,310.255 238.471,309.030 238.328 C 307.405 238.138,307.200 238.441,307.200 241.033 L 307.200 242.800 274.500 242.813 C 132.527 242.872,9.862 242.762,9.561 242.576 C 8.973 242.212,9.090 150.270,9.680 149.680 C 10.185 149.175,304.405 148.944,306.283 149.448 M53.000 156.234 C 27.423 158.070,16.359 170.062,16.311 196.000 C 16.284 210.960,19.407 219.993,27.127 227.275 C 38.839 238.324,63.965 239.094,81.990 228.958 L 85.200 227.152 85.200 207.776 L 85.200 188.400 68.600 188.400 L 52.000 188.400 52.000 198.000 L 52.000 207.600 56.826 207.600 C 63.116 207.600,63.200 207.650,63.200 211.365 C 63.200 215.230,63.157 215.259,57.326 215.238 C 45.210 215.196,39.631 210.693,38.300 199.880 C 37.129 190.372,40.122 182.040,45.753 179.132 C 52.289 175.756,68.387 176.248,81.100 180.213 L 82.000 180.493 82.000 170.855 L 82.000 161.216 80.394 160.397 C 75.205 157.750,61.306 155.637,53.000 156.234 M95.600 195.958 L 95.600 234.785 96.500 235.005 C 96.995 235.126,102.080 235.174,107.800 235.112 L 118.200 235.000 118.400 224.400 L 118.600 213.800 121.000 213.800 L 123.400 213.800 128.739 224.500 L 134.078 235.200 146.839 235.200 L 159.600 235.200 159.600 233.941 C 159.600 232.814,158.847 231.218,155.006 224.200 C 146.435 208.541,146.688 209.181,148.588 208.007 C 159.031 201.553,160.891 178.345,151.913 166.520 C 146.254 159.067,140.002 157.551,113.900 157.304 L 95.600 157.131 95.600 195.958 M165.855 159.100 C 166.088 160.945,167.393 165.377,175.603 192.200 C 177.758 199.240,181.551 211.660,184.033 219.800 C 186.514 227.940,188.737 234.732,188.972 234.894 C 189.208 235.056,194.759 235.191,201.309 235.194 L 213.217 235.200 213.604 234.300 C 213.817 233.805,215.419 228.720,217.163 223.000 C 222.782 204.582,227.434 189.341,231.969 174.497 C 234.406 166.521,236.400 159.366,236.400 158.597 L 236.400 157.200 224.987 157.200 C 216.210 157.200,213.538 157.315,213.414 157.700 C 213.325 157.975,210.711 168.190,207.605 180.400 C 201.070 206.089,201.635 204.000,201.222 204.000 C 200.693 204.000,200.126 202.227,198.022 194.000 C 196.924 189.710,194.940 181.970,193.612 176.800 C 192.284 171.630,190.618 165.105,189.908 162.300 L 188.618 157.200 177.117 157.200 L 165.615 157.200 165.855 159.100 M244.400 196.200 L 244.400 235.200 262.776 235.200 C 272.883 235.200,281.248 235.046,281.364 234.858 C 281.754 234.227,279.583 233.600,277.008 233.600 C 274.562 233.600,272.800 232.524,272.800 231.030 C 272.800 229.383,269.782 226.826,267.151 226.243 C 265.212 225.813,264.381 224.767,264.051 222.340 C 263.683 219.623,262.894 218.322,260.824 217.015 C 258.318 215.433,257.948 214.633,258.225 211.400 C 258.456 208.707,258.414 208.525,257.133 206.635 C 256.400 205.554,255.502 204.228,255.137 203.688 C 254.475 202.707,254.702 200.992,255.658 199.760 C 256.570 198.583,256.482 195.785,255.451 193.249 C 254.289 190.389,254.286 190.402,256.855 187.064 L 258.444 185.000 258.212 181.800 C 257.948 178.159,257.929 178.204,260.530 176.434 C 262.787 174.898,263.996 173.114,263.999 171.319 C 264.001 169.505,264.773 168.035,266.078 167.360 L 267.200 166.779 267.200 161.990 L 267.200 157.200 255.800 157.200 L 244.400 157.200 244.400 196.200 M127.530 177.989 C 133.720 178.701,136.167 181.902,134.818 187.524 C 133.869 191.481,130.586 192.915,122.936 192.714 L 118.600 192.600 118.490 185.653 C 118.349 176.717,118.124 176.907,127.530 177.989 " stroke="none" fill="#fbfbfb" fill-rule="evenodd"></path><path id="path2" d="M307.700 155.465 C 307.305 155.624,307.200 164.225,307.200 196.587 L 307.200 237.507 308.100 237.748 C 309.807 238.205,310.301 237.993,312.483 235.863 C 314.766 233.634,315.864 233.214,319.438 233.204 C 321.288 233.199,321.751 232.789,323.198 229.872 C 324.278 227.694,325.398 226.792,328.000 226.003 C 330.384 225.281,331.195 224.534,331.222 223.038 C 331.267 220.490,332.478 218.362,335.000 216.398 L 337.400 214.530 337.400 210.965 L 337.400 207.400 339.100 205.264 C 341.033 202.836,341.110 202.392,340.000 200.094 C 339.556 199.176,339.200 197.620,339.200 196.600 C 339.200 195.580,339.556 194.024,340.000 193.106 C 341.126 190.775,341.023 190.178,339.100 187.878 L 337.400 185.845 337.400 182.422 C 337.400 178.454,337.410 178.476,334.608 176.406 C 332.423 174.792,331.429 172.910,331.119 169.800 C 331.027 168.872,330.683 168.453,329.600 167.954 C 324.438 165.571,324.269 165.448,323.168 163.296 C 321.534 160.103,321.395 160.000,318.731 160.000 C 315.853 160.000,314.345 159.305,312.143 156.962 C 310.529 155.245,309.284 154.826,307.700 155.465 M265.908 167.877 C 265.249 168.047,264.956 168.781,264.006 172.637 C 263.526 174.585,262.844 175.412,260.261 177.171 L 258.323 178.492 258.419 181.146 C 258.571 185.367,258.487 185.709,256.800 187.751 C 254.972 189.963,254.819 191.062,256.000 193.506 C 256.440 194.416,256.800 195.809,256.800 196.600 C 256.800 197.391,256.440 198.784,256.000 199.694 C 254.846 202.084,254.992 203.057,256.874 205.496 L 258.549 207.667 258.473 211.220 L 258.397 214.773 260.499 216.325 C 263.384 218.456,263.626 218.819,264.373 222.112 L 265.028 225.000 267.613 225.923 C 270.705 227.028,271.519 227.734,273.034 230.630 C 274.261 232.976,274.309 233.002,278.200 233.410 C 279.768 233.574,281.097 234.000,282.033 234.639 C 283.457 235.610,283.522 235.616,292.033 235.508 L 300.600 235.400 300.600 224.800 L 300.600 214.200 284.103 214.096 L 267.606 213.991 267.503 190.929 C 267.436 175.961,267.260 167.837,267.000 167.782 C 266.780 167.736,266.288 167.778,265.908 167.877 " stroke="none" fill="#fc944d" fill-rule="evenodd"></path><path id="path3" d="M83.900 149.500 C 124.655 149.556,191.345 149.556,232.100 149.500 C 272.855 149.444,239.510 149.398,158.000 149.398 C 76.490 149.398,43.145 149.444,83.900 149.500 M9.397 196.200 L 9.400 242.600 48.800 242.603 L 88.200 242.606 48.902 242.501 L 9.603 242.396 9.499 196.098 L 9.395 149.800 9.397 196.200 M309.590 155.209 C 310.460 155.413,311.413 156.076,312.138 156.980 C 312.775 157.774,313.680 158.625,314.148 158.871 C 314.617 159.118,313.981 158.302,312.735 157.060 C 310.992 155.321,310.208 154.809,309.335 154.841 C 308.262 154.880,308.276 154.900,309.590 155.209 M50.500 156.291 C 51.325 156.378,52.675 156.378,53.500 156.291 C 54.325 156.205,53.650 156.134,52.000 156.134 C 50.350 156.134,49.675 156.205,50.500 156.291 M61.907 156.290 C 62.626 156.379,63.706 156.377,64.307 156.286 C 64.908 156.195,64.320 156.122,63.000 156.124 C 61.680 156.126,61.188 156.201,61.907 156.290 M44.500 157.076 C 44.885 157.176,45.515 157.176,45.900 157.076 C 46.285 156.975,45.970 156.893,45.200 156.893 C 44.430 156.893,44.115 156.975,44.500 157.076 M68.100 157.076 C 68.485 157.176,69.115 157.176,69.500 157.076 C 69.885 156.975,69.570 156.893,68.800 156.893 C 68.030 156.893,67.715 156.975,68.100 157.076 M103.700 157.100 C 108.265 157.164,115.735 157.164,120.300 157.100 C 124.865 157.035,121.130 156.983,112.000 156.983 C 102.870 156.983,99.135 157.035,103.700 157.100 M171.300 157.099 C 174.545 157.166,179.855 157.166,183.100 157.099 C 186.345 157.032,183.690 156.977,177.200 156.977 C 170.710 156.977,168.055 157.032,171.300 157.099 M213.461 157.100 C 213.359 157.265,218.501 157.350,224.888 157.288 L 236.501 157.176 236.316 159.405 C 236.213 160.644,236.277 161.405,236.460 161.117 C 236.640 160.833,236.791 159.745,236.794 158.700 L 236.800 156.800 225.224 156.800 C 218.857 156.800,213.564 156.935,213.461 157.100 M244.184 157.300 C 244.079 157.575,244.041 175.260,244.099 196.600 L 244.204 235.400 244.302 196.306 L 244.400 157.212 255.900 157.100 L 267.400 156.987 255.887 156.894 C 246.976 156.821,244.332 156.913,244.184 157.300 M129.705 157.487 C 130.314 157.579,131.214 157.577,131.705 157.482 C 132.197 157.387,131.700 157.311,130.600 157.314 C 129.500 157.317,129.097 157.395,129.705 157.487 M72.800 158.000 C 74.168 158.438,75.219 158.438,74.200 158.000 C 73.760 157.811,73.040 157.662,72.600 157.668 C 71.957 157.677,71.996 157.743,72.800 158.000 M133.233 157.746 C 133.325 157.826,134.390 157.994,135.600 158.119 C 137.020 158.266,137.446 158.229,136.800 158.013 C 135.809 157.683,132.913 157.465,133.233 157.746 M189.044 159.000 C 189.373 160.471,189.602 160.790,189.594 159.767 C 189.591 159.345,189.405 158.730,189.182 158.400 C 188.885 157.962,188.848 158.124,189.044 159.000 M36.500 159.034 C 35.785 159.346,35.200 159.690,35.200 159.798 C 35.200 159.976,38.376 158.851,38.767 158.535 C 39.195 158.188,37.662 158.526,36.500 159.034 M75.233 158.544 C 75.325 158.623,75.940 158.808,76.600 158.956 C 77.476 159.152,77.638 159.115,77.200 158.818 C 76.660 158.453,74.832 158.198,75.233 158.544 M165.606 159.833 C 165.609 160.695,165.770 161.649,165.963 161.954 C 166.178 162.293,166.232 161.749,166.104 160.554 C 165.842 158.117,165.598 157.764,165.606 159.833 M315.600 159.603 C 316.143 159.951,321.160 160.196,320.767 159.856 C 320.675 159.777,319.340 159.601,317.800 159.465 C 315.947 159.302,315.203 159.349,315.600 159.603 M80.900 160.629 L 82.000 161.226 82.000 170.779 C 82.000 176.905,81.853 180.406,81.590 180.537 C 81.365 180.649,81.409 180.694,81.690 180.637 C 82.728 180.427,82.611 161.555,81.567 160.700 C 81.096 160.315,80.506 160.007,80.256 160.016 C 80.005 160.025,80.295 160.301,80.900 160.629 M189.668 161.200 C 189.688 162.239,190.318 163.946,190.332 163.000 C 190.338 162.560,190.189 161.840,190.000 161.400 C 189.789 160.910,189.661 160.832,189.668 161.200 M146.200 161.465 C 147.222 162.433,149.733 164.071,149.127 163.374 C 148.757 162.948,147.857 162.259,147.127 161.843 C 146.397 161.427,145.980 161.257,146.200 161.465 M29.600 162.669 C 27.552 164.220,24.065 167.618,23.102 169.000 C 22.642 169.660,23.331 169.042,24.633 167.626 C 25.935 166.210,28.055 164.275,29.344 163.326 C 30.633 162.377,31.533 161.602,31.344 161.604 C 31.155 161.607,30.370 162.086,29.600 162.669 M211.449 163.815 C 211.312 164.173,211.215 164.766,211.234 165.133 C 211.253 165.500,211.427 165.269,211.621 164.620 C 211.998 163.358,211.865 162.733,211.449 163.815 M323.213 163.314 C 323.188 163.917,324.520 165.636,325.357 166.081 C 326.166 166.511,326.163 166.490,325.299 165.565 C 324.803 165.034,324.134 164.240,323.812 163.800 C 323.489 163.360,323.220 163.141,323.213 163.314 M234.846 164.867 C 234.821 165.234,234.696 165.864,234.570 166.267 C 234.352 166.962,234.363 166.963,234.797 166.287 C 235.048 165.896,235.173 165.266,235.073 164.887 C 234.911 164.268,234.888 164.266,234.846 164.867 M167.206 165.833 C 167.209 166.255,167.395 166.870,167.618 167.200 C 167.915 167.638,167.952 167.476,167.756 166.600 C 167.427 165.129,167.198 164.810,167.206 165.833 M210.649 167.015 C 210.512 167.373,210.415 167.966,210.434 168.333 C 210.453 168.700,210.627 168.469,210.821 167.820 C 211.198 166.558,211.065 165.933,210.649 167.015 M326.800 166.800 C 327.130 167.013,327.670 167.188,328.000 167.188 C 328.533 167.188,328.533 167.145,328.000 166.800 C 327.670 166.587,327.130 166.412,326.800 166.412 C 326.267 166.412,326.267 166.455,326.800 166.800 M266.044 167.358 C 264.807 168.044,264.020 169.489,264.061 171.000 C 264.082 171.789,264.154 171.926,264.272 171.400 C 264.834 168.901,265.290 168.064,266.218 167.831 C 266.758 167.696,267.200 167.408,267.200 167.192 C 267.200 166.711,267.216 166.709,266.044 167.358 M191.444 168.200 C 191.773 169.671,192.002 169.990,191.994 168.967 C 191.991 168.545,191.805 167.930,191.582 167.600 C 191.285 167.162,191.248 167.324,191.444 168.200 M329.800 167.947 C 330.460 168.356,331.077 168.623,331.171 168.541 C 331.448 168.299,329.854 167.226,329.200 167.215 C 328.870 167.209,329.140 167.539,329.800 167.947 M153.960 169.400 C 154.634 170.705,155.188 171.428,155.185 171.000 C 155.183 170.780,154.814 170.150,154.364 169.600 C 153.821 168.936,153.685 168.869,153.960 169.400 M209.800 170.400 C 209.648 171.091,209.607 171.741,209.709 171.842 C 209.811 171.944,210.009 171.453,210.150 170.750 C 210.483 169.083,210.160 168.760,209.800 170.400 M331.256 170.200 C 331.256 170.860,331.411 171.760,331.600 172.200 C 331.893 172.882,331.944 172.823,331.944 171.800 C 331.944 171.140,331.789 170.240,331.600 169.800 C 331.307 169.118,331.256 169.177,331.256 170.200 M233.246 170.067 C 233.221 170.434,233.096 171.064,232.970 171.467 C 232.752 172.162,232.763 172.163,233.197 171.487 C 233.448 171.096,233.573 170.466,233.473 170.087 C 233.311 169.468,233.288 169.466,233.246 170.067 M21.414 171.435 C 21.041 172.004,20.805 172.538,20.889 172.622 C 20.973 172.707,21.358 172.241,21.744 171.588 C 22.606 170.128,22.348 170.009,21.414 171.435 M168.806 171.033 C 168.809 171.455,168.995 172.070,169.218 172.400 C 169.515 172.838,169.552 172.676,169.356 171.800 C 169.027 170.329,168.798 170.010,168.806 171.033 M192.244 171.400 C 192.573 172.871,192.802 173.190,192.794 172.167 C 192.791 171.745,192.605 171.130,192.382 170.800 C 192.085 170.362,192.048 170.524,192.244 171.400 M209.000 173.600 C 208.848 174.291,208.807 174.941,208.909 175.042 C 209.011 175.144,209.209 174.653,209.350 173.950 C 209.683 172.283,209.360 171.960,209.000 173.600 M263.141 173.973 C 262.788 174.590,261.621 175.691,260.549 176.421 C 258.106 178.083,257.998 178.248,258.076 180.200 L 258.140 181.800 258.293 180.104 C 258.428 178.600,258.659 178.261,260.323 177.123 C 262.591 175.571,262.932 175.249,263.569 174.057 C 264.286 172.718,263.905 172.642,263.141 173.973 M332.012 173.326 C 331.985 174.053,332.871 175.193,334.099 176.010 L 335.400 176.876 334.145 175.738 C 333.455 175.112,332.696 174.240,332.458 173.800 C 332.219 173.360,332.019 173.147,332.012 173.326 M156.244 174.600 C 156.573 176.071,156.802 176.390,156.794 175.367 C 156.791 174.945,156.605 174.330,156.382 174.000 C 156.085 173.562,156.048 173.724,156.244 174.600 M193.044 174.600 C 193.373 176.071,193.602 176.390,193.594 175.367 C 193.591 174.945,193.405 174.330,193.182 174.000 C 192.885 173.562,192.848 173.724,193.044 174.600 M170.406 176.233 C 170.409 176.655,170.595 177.270,170.818 177.600 C 171.115 178.038,171.152 177.876,170.956 177.000 C 170.627 175.529,170.398 175.210,170.406 176.233 M193.668 176.800 C 193.688 177.839,194.318 179.546,194.332 178.600 C 194.338 178.160,194.189 177.440,194.000 177.000 C 193.789 176.510,193.661 176.432,193.668 176.800 M51.800 177.222 C 50.789 177.416,51.378 177.451,53.400 177.316 C 55.160 177.199,56.675 177.035,56.767 176.951 C 57.044 176.700,53.511 176.892,51.800 177.222 M62.400 177.217 C 63.610 177.384,65.230 177.515,66.000 177.507 C 67.122 177.496,67.003 177.431,65.400 177.182 C 64.300 177.010,62.680 176.880,61.800 176.891 C 60.407 176.910,60.484 176.952,62.400 177.217 M336.370 177.742 C 337.418 178.886,337.600 178.990,337.600 178.446 C 337.600 178.251,337.105 177.775,336.500 177.388 L 335.400 176.685 336.370 177.742 M118.839 178.153 C 118.089 179.056,118.421 192.475,119.200 192.732 C 119.698 192.896,119.713 192.825,119.290 192.312 C 118.911 191.853,118.808 189.961,118.890 184.947 L 119.000 178.200 122.400 177.975 L 125.800 177.749 122.549 177.675 C 120.197 177.621,119.171 177.753,118.839 178.153 M70.900 178.276 C 71.285 178.376,71.915 178.376,72.300 178.276 C 72.685 178.175,72.370 178.093,71.600 178.093 C 70.830 178.093,70.515 178.175,70.900 178.276 M127.100 178.282 C 127.595 178.378,128.405 178.378,128.900 178.282 C 129.395 178.187,128.990 178.109,128.000 178.109 C 127.010 178.109,126.605 178.187,127.100 178.282 M157.301 179.400 C 157.305 180.280,157.387 180.593,157.483 180.095 C 157.579 179.598,157.575 178.878,157.475 178.495 C 157.375 178.113,157.296 178.520,157.301 179.400 M74.200 178.781 C 74.968 179.129,77.110 179.356,76.767 179.053 C 76.675 178.972,75.880 178.796,75.000 178.662 C 73.885 178.493,73.642 178.529,74.200 178.781 M131.600 179.239 C 132.370 179.699,133.327 180.463,133.727 180.937 L 134.454 181.800 134.032 180.936 C 133.627 180.105,131.283 178.398,130.553 178.401 C 130.359 178.402,130.830 178.779,131.600 179.239 M207.449 179.415 C 207.312 179.773,207.215 180.366,207.234 180.733 C 207.253 181.100,207.427 180.869,207.621 180.220 C 207.998 178.958,207.865 178.333,207.449 179.415 M78.000 179.582 C 78.330 179.805,78.945 179.991,79.367 179.994 C 80.390 180.002,80.071 179.773,78.600 179.444 C 77.724 179.248,77.562 179.285,78.000 179.582 M41.924 182.300 C 40.759 183.549,39.839 185.173,40.131 185.464 C 40.239 185.572,40.449 185.275,40.599 184.804 C 40.748 184.333,41.413 183.329,42.077 182.574 C 43.512 180.939,43.392 180.725,41.924 182.300 M337.320 183.200 C 337.320 184.410,337.395 184.905,337.487 184.300 C 337.578 183.695,337.578 182.705,337.487 182.100 C 337.395 181.495,337.320 181.990,337.320 183.200 M134.688 184.200 C 134.811 185.520,134.976 186.675,135.056 186.767 C 135.335 187.089,135.116 183.788,134.793 182.800 C 134.589 182.179,134.549 182.709,134.688 184.200 M206.649 182.615 C 206.512 182.973,206.415 183.566,206.434 183.933 C 206.453 184.300,206.627 184.069,206.821 183.420 C 207.198 182.158,207.065 181.533,206.649 182.615 M157.728 185.600 C 157.728 187.030,157.801 187.615,157.889 186.900 C 157.978 186.185,157.978 185.015,157.889 184.300 C 157.801 183.585,157.728 184.170,157.728 185.600 M205.800 186.000 C 205.648 186.691,205.607 187.341,205.709 187.442 C 205.811 187.544,206.009 187.053,206.150 186.350 C 206.483 184.683,206.160 184.360,205.800 186.000 M256.777 187.100 C 254.594 190.112,254.316 190.724,254.772 191.507 C 255.106 192.080,255.178 191.983,255.188 190.944 C 255.196 190.079,255.699 189.084,256.800 187.751 C 258.199 186.058,258.696 185.200,258.277 185.200 C 258.209 185.200,257.534 186.055,256.777 187.100 M337.621 185.800 C 337.623 186.020,338.355 187.010,339.249 188.000 C 340.143 188.990,340.503 189.260,340.049 188.600 C 338.656 186.577,337.618 185.380,337.621 185.800 M196.244 187.000 C 196.573 188.471,196.802 188.790,196.794 187.767 C 196.791 187.345,196.605 186.730,196.382 186.400 C 196.085 185.962,196.048 186.124,196.244 187.000 M38.640 189.640 C 38.493 190.557,38.452 191.385,38.547 191.480 C 38.642 191.576,38.846 190.910,39.000 190.000 C 39.154 189.090,39.196 188.262,39.093 188.160 C 38.990 188.057,38.787 188.723,38.640 189.640 M68.507 188.298 L 85.215 188.409 85.107 207.985 C 85.048 218.751,85.137 227.424,85.304 227.256 C 85.471 227.089,85.561 218.233,85.504 207.576 L 85.400 188.200 68.600 188.193 L 51.800 188.187 68.507 188.298 M205.000 189.200 C 204.848 189.891,204.807 190.541,204.909 190.642 C 205.011 190.744,205.209 190.253,205.350 189.550 C 205.683 187.883,205.360 187.560,205.000 189.200 M227.646 188.467 C 227.621 188.834,227.496 189.464,227.370 189.867 C 227.152 190.562,227.163 190.563,227.597 189.887 C 227.848 189.496,227.973 188.866,227.873 188.487 C 227.711 187.868,227.688 187.866,227.646 188.467 M16.137 191.400 C 16.139 193.160,16.209 193.830,16.293 192.889 C 16.378 191.949,16.377 190.509,16.291 189.689 C 16.205 188.870,16.136 189.640,16.137 191.400 M133.270 190.053 C 132.758 190.684,132.093 191.200,131.793 191.200 C 131.493 191.200,131.146 191.363,131.023 191.563 C 130.900 191.762,131.141 191.836,131.559 191.727 C 132.353 191.519,134.668 189.321,134.371 189.057 C 134.277 188.974,133.781 189.422,133.270 190.053 M174.406 189.433 C 174.409 189.855,174.595 190.470,174.818 190.800 C 175.115 191.238,175.152 191.076,174.956 190.200 C 174.627 188.729,174.398 188.410,174.406 189.433 M197.044 190.200 C 197.373 191.671,197.602 191.990,197.594 190.967 C 197.591 190.545,197.405 189.930,197.182 189.600 C 196.885 189.162,196.848 189.324,197.044 190.200 M157.301 191.800 C 157.305 192.680,157.387 192.993,157.483 192.495 C 157.579 191.998,157.575 191.278,157.475 190.895 C 157.375 190.513,157.296 190.920,157.301 191.800 M197.668 192.400 C 197.688 193.439,198.318 195.146,198.332 194.200 C 198.338 193.760,198.189 193.040,198.000 192.600 C 197.789 192.110,197.661 192.032,197.668 192.400 M126.100 192.676 C 126.485 192.776,127.115 192.776,127.500 192.676 C 127.885 192.575,127.570 192.493,126.800 192.493 C 126.030 192.493,125.715 192.575,126.100 192.676 M255.200 192.551 C 255.200 192.634,255.489 193.394,255.842 194.239 C 256.279 195.285,256.408 196.356,256.245 197.588 C 256.080 198.838,256.127 199.214,256.397 198.800 C 256.979 197.906,256.881 195.491,256.195 193.849 C 255.682 192.622,255.200 191.993,255.200 192.551 M38.137 196.200 C 38.139 197.960,38.209 198.630,38.293 197.689 C 38.378 196.749,38.377 195.309,38.291 194.489 C 38.205 193.670,38.136 194.440,38.137 196.200 M226.046 193.667 C 226.021 194.034,225.896 194.664,225.770 195.067 C 225.552 195.762,225.563 195.763,225.997 195.087 C 226.248 194.696,226.373 194.066,226.273 193.687 C 226.111 193.068,226.088 193.066,226.046 193.667 M176.006 194.633 C 176.009 195.055,176.195 195.670,176.418 196.000 C 176.715 196.438,176.752 196.276,176.556 195.400 C 176.227 193.929,175.998 193.610,176.006 194.633 M203.449 195.015 C 203.312 195.373,203.215 195.966,203.234 196.333 C 203.253 196.700,203.427 196.469,203.621 195.820 C 203.998 194.558,203.865 193.933,203.449 195.015 M156.446 195.667 C 156.421 196.034,156.296 196.664,156.170 197.067 C 155.952 197.762,155.963 197.763,156.397 197.087 C 156.648 196.696,156.773 196.066,156.673 195.687 C 156.511 195.068,156.488 195.066,156.446 195.667 M202.649 198.215 C 202.512 198.573,202.415 199.166,202.434 199.533 C 202.453 199.900,202.627 199.669,202.821 199.020 C 203.198 197.758,203.065 197.133,202.649 198.215 M16.137 201.000 C 16.139 202.760,16.209 203.430,16.293 202.489 C 16.378 201.549,16.377 200.109,16.291 199.289 C 16.205 198.470,16.136 199.240,16.137 201.000 M154.722 200.456 C 154.129 201.745,153.721 202.800,153.815 202.800 C 154.106 202.800,156.053 198.756,155.923 198.424 C 155.855 198.252,155.315 199.167,154.722 200.456 M199.444 199.400 C 199.773 200.871,200.002 201.190,199.994 200.167 C 199.991 199.745,199.805 199.130,199.582 198.800 C 199.285 198.362,199.248 198.524,199.444 199.400 M224.446 198.867 C 224.421 199.234,224.296 199.864,224.170 200.267 C 223.952 200.962,223.963 200.963,224.397 200.287 C 224.648 199.896,224.773 199.266,224.673 198.887 C 224.511 198.268,224.488 198.266,224.446 198.867 M177.606 199.833 C 177.609 200.255,177.795 200.870,178.018 201.200 C 178.315 201.638,178.352 201.476,178.156 200.600 C 177.827 199.129,177.598 198.810,177.606 199.833 M201.781 201.759 C 201.479 203.370,200.988 203.622,200.590 202.370 C 200.446 201.913,200.247 201.620,200.149 201.718 C 199.891 201.975,200.868 204.000,201.249 204.000 C 201.626 204.000,202.545 200.812,202.252 200.519 C 202.142 200.408,201.930 200.967,201.781 201.759 M38.480 201.400 C 38.480 201.840,38.624 202.650,38.800 203.200 C 39.054 203.992,39.120 204.033,39.120 203.400 C 39.120 202.960,38.976 202.150,38.800 201.600 C 38.546 200.808,38.480 200.767,38.480 201.400 M254.743 201.868 C 254.593 202.386,254.755 203.125,255.146 203.703 C 255.506 204.235,256.385 205.544,257.100 206.613 C 257.815 207.682,258.400 208.313,258.400 208.015 C 258.400 207.718,257.695 206.557,256.833 205.437 C 255.972 204.317,255.205 202.860,255.131 202.200 C 255.011 201.149,254.963 201.108,254.743 201.868 M340.800 202.364 C 340.800 202.784,340.064 204.059,339.165 205.196 C 338.266 206.333,337.606 207.340,337.698 207.432 C 338.008 207.741,341.200 203.108,341.200 202.350 C 341.200 201.937,341.110 201.600,341.000 201.600 C 340.890 201.600,340.800 201.944,340.800 202.364 M151.626 205.300 C 150.650 206.455,150.353 206.950,150.965 206.400 C 151.996 205.473,153.817 203.200,153.527 203.200 C 153.457 203.200,152.602 204.145,151.626 205.300 M179.206 205.033 C 179.209 205.455,179.395 206.070,179.618 206.400 C 179.915 206.838,179.952 206.676,179.756 205.800 C 179.427 204.329,179.198 204.010,179.206 205.033 M40.016 206.520 C 39.986 207.120,41.146 209.057,41.874 209.622 C 42.560 210.155,42.564 210.142,41.950 209.393 C 41.593 208.957,41.015 208.060,40.666 207.400 C 40.317 206.740,40.025 206.344,40.016 206.520 M54.517 207.897 C 56.011 207.974,58.351 207.974,59.717 207.896 C 61.082 207.818,59.860 207.755,57.000 207.755 C 54.140 207.756,53.022 207.820,54.517 207.897 M148.021 208.370 C 147.163 209.030,147.102 209.237,147.524 210.061 C 148.003 210.998,148.004 210.998,147.772 210.089 C 147.605 209.437,147.804 208.957,148.469 208.402 C 149.664 207.406,149.308 207.381,148.021 208.370 M62.600 211.317 C 62.600 214.433,62.561 214.569,61.600 214.839 C 60.761 215.075,60.732 215.127,61.420 215.160 C 62.943 215.234,64.258 209.103,62.900 208.261 C 62.735 208.159,62.600 209.534,62.600 211.317 M337.320 210.000 C 337.320 211.210,337.395 211.705,337.487 211.100 C 337.578 210.495,337.578 209.505,337.487 208.900 C 337.395 208.295,337.320 208.790,337.320 210.000 M17.668 211.400 C 17.662 211.840,17.811 212.560,18.000 213.000 C 18.438 214.019,18.438 212.968,18.000 211.600 C 17.743 210.796,17.677 210.757,17.668 211.400 M43.600 211.410 C 43.600 211.693,46.799 213.735,46.966 213.559 C 47.048 213.471,46.325 212.912,45.358 212.315 C 44.391 211.719,43.600 211.311,43.600 211.410 M149.040 213.202 C 149.639 214.303,150.193 215.140,150.271 215.063 C 150.443 214.890,148.408 211.200,148.141 211.200 C 148.036 211.200,148.440 212.101,149.040 213.202 M258.093 213.200 C 258.093 213.970,258.175 214.285,258.276 213.900 C 258.376 213.515,258.376 212.885,258.276 212.500 C 258.175 212.115,258.093 212.430,258.093 213.200 M118.593 214.100 C 118.279 214.960,118.184 235.201,118.493 235.200 C 118.655 235.200,118.835 230.475,118.893 224.700 L 119.000 214.200 120.931 214.077 C 122.092 214.003,123.129 214.162,123.531 214.477 C 124.131 214.946,124.143 214.927,123.651 214.300 C 122.982 213.447,118.890 213.285,118.593 214.100 M51.000 214.800 C 51.660 214.968,52.740 215.106,53.400 215.107 C 54.409 215.108,54.345 215.055,53.000 214.777 C 50.974 214.358,49.337 214.377,51.000 214.800 M335.400 216.021 C 333.182 217.748,331.994 219.054,332.012 219.744 C 332.019 219.995,332.232 219.840,332.486 219.400 C 333.109 218.321,333.485 217.978,335.700 216.462 C 336.745 215.747,337.600 214.990,337.600 214.781 C 337.600 214.286,337.709 214.224,335.400 216.021 M258.794 215.387 C 259.121 215.784,260.072 216.541,260.909 217.069 C 261.745 217.596,262.782 218.607,263.213 219.314 C 263.644 220.021,263.998 220.399,263.999 220.154 C 264.001 219.375,262.470 217.725,260.301 216.171 C 259.145 215.343,258.467 214.990,258.794 215.387 M151.400 217.600 C 151.957 218.700,152.503 219.600,152.613 219.600 C 152.723 219.600,152.357 218.700,151.800 217.600 C 151.243 216.500,150.697 215.600,150.587 215.600 C 150.477 215.600,150.843 216.500,151.400 217.600 M218.846 217.267 C 218.821 217.634,218.696 218.264,218.570 218.667 C 218.352 219.362,218.363 219.363,218.797 218.687 C 219.048 218.296,219.173 217.666,219.073 217.287 C 218.911 216.668,218.888 216.666,218.846 217.267 M183.206 218.233 C 183.209 218.655,183.395 219.270,183.618 219.600 C 183.915 220.038,183.952 219.876,183.756 219.000 C 183.427 217.529,183.198 217.210,183.206 218.233 M20.800 219.727 C 20.800 220.484,24.121 224.783,26.263 226.799 L 28.600 228.999 26.149 226.399 C 24.802 224.970,23.047 222.812,22.249 221.605 C 21.452 220.398,20.800 219.553,20.800 219.727 M331.489 221.200 C 331.336 221.750,331.225 222.650,331.242 223.200 C 331.268 224.061,331.326 224.014,331.658 222.860 C 331.870 222.124,331.981 221.224,331.906 220.860 C 331.808 220.394,331.686 220.493,331.489 221.200 M264.038 222.074 C 263.954 224.421,265.759 226.442,267.880 226.378 C 268.276 226.366,267.790 226.046,266.800 225.667 C 265.128 225.026,264.968 224.837,264.539 222.989 C 264.227 221.648,264.064 221.350,264.038 222.074 M127.241 221.800 C 127.241 222.020,128.303 224.270,129.600 226.800 C 130.897 229.330,131.959 231.220,131.959 231.000 C 131.959 230.780,130.897 228.530,129.600 226.000 C 128.303 223.470,127.241 221.580,127.241 221.800 M217.246 222.467 C 217.221 222.834,217.096 223.464,216.970 223.867 C 216.752 224.562,216.763 224.563,217.197 223.887 C 217.448 223.496,217.573 222.866,217.473 222.487 C 217.311 221.868,217.288 221.866,217.246 222.467 M184.806 223.433 C 184.809 223.855,184.995 224.470,185.218 224.800 C 185.515 225.238,185.552 225.076,185.356 224.200 C 185.027 222.729,184.798 222.410,184.806 223.433 M328.000 226.000 C 327.467 226.345,327.467 226.388,328.000 226.388 C 328.330 226.388,328.870 226.213,329.200 226.000 C 329.733 225.655,329.733 225.612,329.200 225.612 C 328.870 225.612,328.330 225.787,328.000 226.000 M156.800 227.600 C 157.249 228.480,157.706 229.200,157.816 229.200 C 157.926 229.200,157.649 228.480,157.200 227.600 C 156.751 226.720,156.294 226.000,156.184 226.000 C 156.074 226.000,156.351 226.720,156.800 227.600 M268.800 226.610 C 268.800 226.725,269.254 226.993,269.810 227.204 C 270.365 227.415,271.198 228.228,271.659 229.011 C 272.121 229.794,272.586 230.347,272.693 230.240 C 272.973 229.960,271.308 227.721,270.289 227.007 C 269.409 226.391,268.800 226.229,268.800 226.610 M324.613 227.813 C 323.836 228.591,323.206 229.446,323.213 229.713 C 323.220 229.981,323.610 229.684,324.080 229.053 C 324.550 228.422,325.490 227.568,326.168 227.155 C 326.987 226.655,327.170 226.402,326.713 226.401 C 326.336 226.401,325.391 227.036,324.613 227.813 M215.646 227.667 C 215.621 228.034,215.496 228.664,215.370 229.067 C 215.152 229.762,215.163 229.763,215.597 229.087 C 215.848 228.696,215.973 228.066,215.873 227.687 C 215.711 227.068,215.688 227.066,215.646 227.667 M186.406 228.633 C 186.409 229.055,186.595 229.670,186.818 230.000 C 187.115 230.438,187.152 230.276,186.956 229.400 C 186.627 227.929,186.398 227.610,186.406 228.633 M80.700 229.627 C 79.875 230.063,79.200 230.508,79.200 230.618 C 79.200 230.727,79.920 230.449,80.800 230.000 C 81.680 229.551,82.400 229.097,82.400 228.992 C 82.400 228.730,82.397 228.731,80.700 229.627 M30.200 230.165 C 30.860 230.732,31.565 231.197,31.767 231.198 C 32.201 231.200,32.196 231.196,30.400 230.037 L 29.000 229.134 30.200 230.165 M77.200 231.400 C 76.650 231.714,76.380 231.972,76.600 231.972 C 76.820 231.972,77.450 231.714,78.000 231.400 C 78.550 231.086,78.820 230.828,78.600 230.828 C 78.380 230.828,77.750 231.086,77.200 231.400 M272.813 230.938 C 272.759 232.365,274.517 233.598,276.527 233.544 L 278.600 233.487 276.427 233.226 C 275.232 233.082,274.191 232.773,274.113 232.539 C 273.890 231.871,272.827 230.562,272.813 230.938 M32.400 231.396 C 32.400 231.670,34.849 232.884,35.032 232.701 C 35.119 232.614,34.562 232.244,33.795 231.878 C 33.028 231.512,32.400 231.295,32.400 231.396 M73.600 232.800 C 72.610 233.215,72.070 233.552,72.400 233.548 C 73.072 233.540,76.428 232.063,75.800 232.052 C 75.580 232.048,74.590 232.385,73.600 232.800 M159.580 233.710 C 159.775 235.358,159.783 235.367,159.919 234.049 C 159.996 233.306,159.906 232.546,159.720 232.360 C 159.533 232.173,159.471 232.781,159.580 233.710 M321.616 232.581 C 321.331 232.924,320.207 233.221,318.867 233.305 L 316.600 233.449 318.838 233.524 C 320.630 233.585,321.220 233.440,321.800 232.800 C 322.198 232.360,322.428 232.000,322.311 232.000 C 322.194 232.000,321.881 232.261,321.616 232.581 M213.700 234.100 C 213.270 235.275,213.280 235.326,213.812 234.624 C 214.321 233.952,214.621 232.800,214.288 232.800 C 214.226 232.800,213.961 233.385,213.700 234.100 M38.000 233.982 C 38.330 234.205,38.945 234.391,39.367 234.394 C 40.390 234.402,40.071 234.173,38.600 233.844 C 37.724 233.648,37.562 233.685,38.000 233.982 M280.713 234.135 C 281.214 234.414,281.499 234.767,281.346 234.921 C 281.192 235.074,281.412 235.194,281.833 235.187 C 282.531 235.175,282.515 235.103,281.656 234.387 C 281.136 233.954,280.506 233.606,280.256 233.614 C 280.005 233.622,280.211 233.856,280.713 234.135 M312.510 235.837 C 310.356 237.939,310.128 238.059,308.709 237.832 C 307.437 237.628,307.205 237.701,307.232 238.295 C 307.249 238.683,307.342 238.811,307.438 238.581 C 307.534 238.351,308.248 238.236,309.025 238.327 C 310.256 238.471,310.636 238.282,311.994 236.855 C 312.850 235.955,314.147 234.855,314.875 234.411 C 315.748 233.878,315.961 233.602,315.500 233.601 C 315.115 233.601,313.770 234.606,312.510 235.837 M40.800 234.794 C 41.130 235.011,41.835 235.191,42.367 235.194 C 43.651 235.202,43.325 234.975,41.600 234.658 C 40.615 234.477,40.378 234.518,40.800 234.794 M66.800 234.800 C 65.996 235.057,65.957 235.123,66.600 235.132 C 67.040 235.138,67.760 234.989,68.200 234.800 C 69.219 234.362,68.168 234.362,66.800 234.800 M44.600 235.604 C 45.367 235.930,48.711 236.153,48.367 235.856 C 48.275 235.777,47.210 235.611,46.000 235.488 C 44.631 235.349,44.102 235.392,44.600 235.604 M62.200 235.600 L 60.600 235.886 62.000 235.903 C 62.770 235.913,63.850 235.776,64.400 235.600 C 65.685 235.188,64.499 235.188,62.200 235.600 M52.316 236.297 C 53.699 236.375,55.859 236.374,57.116 236.295 C 58.372 236.216,57.240 236.152,54.600 236.153 C 51.960 236.153,50.932 236.218,52.316 236.297 M96.000 242.672 C 101.404 242.911,165.264 242.989,162.400 242.752 C 160.750 242.616,144.550 242.516,126.400 242.531 C 108.250 242.545,94.570 242.609,96.000 242.672 M183.300 242.700 C 193.145 242.759,209.255 242.759,219.100 242.700 C 228.945 242.640,220.890 242.592,201.200 242.592 C 181.510 242.592,173.455 242.640,183.300 242.700 M258.500 242.700 C 267.465 242.760,282.135 242.760,291.100 242.700 C 300.065 242.640,292.730 242.591,274.800 242.591 C 256.870 242.591,249.535 242.640,258.500 242.700 M89.907 243.090 C 90.626 243.179,91.706 243.177,92.307 243.086 C 92.908 242.995,92.320 242.922,91.000 242.924 C 89.680 242.926,89.188 243.001,89.907 243.090 M238.300 243.089 C 239.015 243.178,240.185 243.178,240.900 243.089 C 241.615 243.001,241.030 242.928,239.600 242.928 C 238.170 242.928,237.585 243.001,238.300 243.089 " stroke="none" fill="#cfc0b1" fill-rule="evenodd"></path><path id="path4" d="M9.632 150.299 C 9.650 150.718,9.744 150.798,9.865 150.500 C 10.026 150.101,40.073 150.000,158.226 150.000 L 306.385 150.000 306.589 150.900 C 306.702 151.395,306.855 152.880,306.930 154.200 C 307.007 155.558,307.052 155.125,307.033 153.200 L 307.000 149.800 158.300 149.699 C 16.856 149.604,9.602 149.633,9.632 150.299 M53.800 155.589 C 51.625 155.799,52.465 155.874,57.567 155.929 C 61.178 155.968,64.058 155.933,63.967 155.851 C 63.599 155.521,56.424 155.336,53.800 155.589 M45.600 156.400 C 44.201 156.848,46.439 156.848,48.200 156.400 L 49.400 156.095 48.000 156.087 C 47.230 156.083,46.150 156.224,45.600 156.400 M66.000 156.400 C 66.550 156.576,67.540 156.720,68.200 156.720 C 69.367 156.720,69.372 156.711,68.400 156.400 C 67.850 156.224,66.860 156.080,66.200 156.080 C 65.033 156.080,65.028 156.089,66.000 156.400 M41.400 157.200 C 40.671 157.513,40.688 157.544,41.600 157.544 C 42.150 157.544,42.960 157.389,43.400 157.200 C 44.129 156.887,44.112 156.856,43.200 156.856 C 42.650 156.856,41.840 157.011,41.400 157.200 M70.800 157.200 C 71.350 157.376,72.160 157.526,72.600 157.532 L 73.400 157.544 72.600 157.200 C 72.160 157.011,71.350 156.862,70.800 156.868 L 69.800 156.880 70.800 157.200 M95.298 196.057 C 95.209 231.725,95.261 235.538,95.833 235.757 C 97.108 236.246,118.212 236.028,118.720 235.520 C 119.069 235.171,119.200 232.213,119.200 224.720 L 119.200 214.400 121.056 214.400 C 122.354 214.400,123.071 214.610,123.443 215.100 C 123.735 215.485,123.980 215.597,123.987 215.349 C 124.013 214.448,122.830 213.956,120.931 214.077 L 119.000 214.200 118.893 224.700 L 118.787 235.200 107.195 235.200 L 95.604 235.200 95.500 195.900 L 95.396 156.600 95.298 196.057 M128.433 156.946 C 128.525 157.026,130.040 157.194,131.800 157.319 C 133.722 157.456,134.601 157.413,134.000 157.213 C 133.029 156.889,128.099 156.653,128.433 156.946 M165.320 158.800 C 165.320 160.010,165.395 160.505,165.487 159.900 C 165.578 159.295,165.578 158.305,165.487 157.700 C 165.395 157.095,165.320 157.590,165.320 158.800 M188.812 157.200 C 188.812 157.530,188.987 158.070,189.200 158.400 C 189.545 158.933,189.588 158.933,189.588 158.400 C 189.588 158.070,189.413 157.530,189.200 157.200 C 188.855 156.667,188.812 156.667,188.812 157.200 M236.909 158.400 C 236.909 159.390,236.987 159.795,237.082 159.300 C 237.178 158.805,237.178 157.995,237.082 157.500 C 236.987 157.005,236.909 157.410,236.909 158.400 M243.784 157.300 C 243.679 157.575,243.640 175.170,243.697 196.400 L 243.800 235.000 244.000 195.900 C 244.110 174.395,244.149 156.800,244.087 156.800 C 244.026 156.800,243.889 157.025,243.784 157.300 M267.228 162.476 C 267.246 166.047,267.386 167.899,267.600 167.400 C 268.089 166.262,268.089 157.302,267.600 157.000 C 267.340 156.839,267.210 158.756,267.228 162.476 M38.600 158.000 L 37.800 158.344 38.600 158.366 C 39.040 158.378,39.670 158.213,40.000 158.000 C 40.795 157.486,39.796 157.486,38.600 158.000 M74.200 158.000 C 74.640 158.189,75.360 158.344,75.800 158.344 L 76.600 158.344 75.800 158.000 C 75.360 157.811,74.640 157.656,74.200 157.656 L 73.400 157.656 74.200 158.000 M136.800 158.000 C 137.350 158.176,138.160 158.326,138.600 158.332 L 139.400 158.344 138.600 158.000 C 138.160 157.811,137.350 157.662,136.800 157.668 L 135.800 157.680 136.800 158.000 M77.200 158.800 C 77.530 159.013,78.070 159.188,78.400 159.188 C 78.933 159.188,78.933 159.145,78.400 158.800 C 78.070 158.587,77.530 158.412,77.200 158.412 C 76.667 158.412,76.667 158.455,77.200 158.800 M140.200 158.800 C 141.396 159.314,142.395 159.314,141.600 158.800 C 141.270 158.587,140.640 158.422,140.200 158.434 L 139.400 158.456 140.200 158.800 M212.200 159.600 C 212.048 160.291,212.014 160.947,212.124 161.057 C 212.234 161.167,212.448 160.691,212.600 160.000 C 212.752 159.309,212.786 158.653,212.676 158.543 C 212.566 158.433,212.352 158.909,212.200 159.600 M32.478 160.577 C 27.723 163.140,23.192 167.335,21.366 170.866 C 20.441 172.654,20.994 172.192,22.399 170.001 C 24.369 166.932,29.122 162.729,32.584 160.995 C 34.243 160.164,35.600 159.421,35.600 159.342 C 35.600 159.003,34.844 159.302,32.478 160.577 M79.200 159.358 C 79.200 159.445,79.920 159.873,80.800 160.308 C 81.680 160.743,82.400 160.976,82.400 160.824 C 82.400 160.672,81.764 160.245,80.986 159.874 C 79.532 159.180,79.200 159.085,79.200 159.358 M142.400 159.339 C 142.400 159.416,143.705 160.131,145.300 160.928 C 148.707 162.630,151.275 164.908,153.394 168.106 C 154.234 169.374,155.006 170.328,155.109 170.224 C 155.447 169.886,151.649 164.905,149.905 163.399 C 147.977 161.735,142.400 158.718,142.400 159.339 M189.656 159.800 C 189.656 160.240,189.811 160.960,190.000 161.400 L 190.344 162.200 190.344 161.400 C 190.344 160.960,190.189 160.240,190.000 159.800 L 189.656 159.000 189.656 159.800 M211.429 162.629 C 211.281 163.215,211.251 163.784,211.361 163.894 C 211.471 164.004,211.681 163.615,211.829 163.029 C 211.976 162.442,212.006 161.873,211.896 161.763 C 211.786 161.653,211.576 162.042,211.429 162.629 M190.456 163.000 C 190.456 163.440,190.611 164.160,190.800 164.600 L 191.144 165.400 191.144 164.600 C 191.144 164.160,190.989 163.440,190.800 163.000 L 190.456 162.200 190.456 163.000 M235.473 163.753 C 235.323 164.145,235.211 164.766,235.225 165.133 C 235.242 165.575,235.381 165.474,235.637 164.834 C 235.849 164.303,235.961 163.682,235.885 163.454 C 235.809 163.227,235.624 163.361,235.473 163.753 M166.434 164.400 C 166.446 164.730,166.611 165.360,166.800 165.800 L 167.144 166.600 167.166 165.800 C 167.178 165.360,167.013 164.730,166.800 164.400 C 166.455 163.867,166.415 163.867,166.434 164.400 M210.629 165.829 C 210.481 166.415,210.451 166.984,210.561 167.094 C 210.671 167.204,210.881 166.815,211.029 166.229 C 211.176 165.642,211.206 165.073,211.096 164.963 C 210.986 164.853,210.776 165.242,210.629 165.829 M191.234 166.200 C 191.222 166.640,191.387 167.270,191.600 167.600 C 192.114 168.395,192.114 167.396,191.600 166.200 L 191.256 165.400 191.234 166.200 M234.600 166.800 C 234.450 167.273,234.417 167.750,234.527 167.860 C 234.637 167.970,234.850 167.673,235.000 167.200 C 235.150 166.727,235.183 166.250,235.073 166.140 C 234.963 166.030,234.750 166.327,234.600 166.800 M167.212 167.200 C 167.212 167.530,167.387 168.070,167.600 168.400 C 167.945 168.933,167.988 168.933,167.988 168.400 C 167.988 168.070,167.813 167.530,167.600 167.200 C 167.255 166.667,167.212 166.667,167.212 167.200 M209.800 168.800 C 209.648 169.491,209.614 170.147,209.724 170.257 C 209.834 170.367,210.048 169.891,210.200 169.200 C 210.352 168.509,210.386 167.853,210.276 167.743 C 210.166 167.633,209.952 168.109,209.800 168.800 M233.873 168.953 C 233.723 169.345,233.611 169.966,233.625 170.333 C 233.642 170.775,233.781 170.674,234.037 170.034 C 234.249 169.503,234.361 168.882,234.285 168.654 C 234.209 168.427,234.024 168.561,233.873 168.953 M192.034 169.400 C 192.022 169.840,192.187 170.470,192.400 170.800 C 192.914 171.595,192.914 170.596,192.400 169.400 L 192.056 168.600 192.034 169.400 M168.034 169.600 C 168.046 169.930,168.211 170.560,168.400 171.000 L 168.744 171.800 168.766 171.000 C 168.778 170.560,168.613 169.930,168.400 169.600 C 168.055 169.067,168.015 169.067,168.034 169.600 M155.230 171.100 C 155.246 171.265,155.606 172.120,156.029 173.000 C 156.750 174.500,156.706 173.703,155.956 171.700 C 155.637 170.846,155.166 170.457,155.230 171.100 M209.000 172.000 C 208.848 172.691,208.814 173.347,208.924 173.457 C 209.034 173.567,209.248 173.091,209.400 172.400 C 209.552 171.709,209.586 171.053,209.476 170.943 C 209.366 170.833,209.152 171.309,209.000 172.000 M233.000 172.000 C 232.850 172.473,232.817 172.950,232.927 173.060 C 233.037 173.170,233.250 172.873,233.400 172.400 C 233.550 171.927,233.583 171.450,233.473 171.340 C 233.363 171.230,233.150 171.527,233.000 172.000 M168.812 172.400 C 168.812 172.730,168.987 173.270,169.200 173.600 C 169.545 174.133,169.588 174.133,169.588 173.600 C 169.588 173.270,169.413 172.730,169.200 172.400 C 168.855 171.867,168.812 171.867,168.812 172.400 M192.834 172.600 C 192.822 173.040,192.987 173.670,193.200 174.000 C 193.714 174.795,193.714 173.796,193.200 172.600 L 192.856 171.800 192.834 172.600 M232.273 174.153 C 232.123 174.545,232.011 175.166,232.025 175.533 C 232.042 175.975,232.181 175.874,232.437 175.234 C 232.649 174.703,232.761 174.082,232.685 173.854 C 232.609 173.627,232.424 173.761,232.273 174.153 M19.168 175.045 C 17.938 178.173,16.803 181.827,16.832 182.570 C 16.866 183.487,16.962 183.249,18.029 179.600 C 18.319 178.610,18.885 177.010,19.288 176.043 C 19.691 175.077,19.931 174.197,19.821 174.088 C 19.712 173.979,19.418 174.409,19.168 175.045 M208.200 175.200 C 208.048 175.891,208.014 176.547,208.124 176.657 C 208.234 176.767,208.448 176.291,208.600 175.600 C 208.752 174.909,208.786 174.253,208.676 174.143 C 208.566 174.033,208.352 174.509,208.200 175.200 M169.634 174.800 C 169.646 175.130,169.811 175.760,170.000 176.200 L 170.344 177.000 170.366 176.200 C 170.378 175.760,170.213 175.130,170.000 174.800 C 169.655 174.267,169.615 174.267,169.634 174.800 M156.868 175.600 C 156.862 176.150,157.011 176.960,157.200 177.400 L 157.544 178.200 157.532 177.400 C 157.526 176.960,157.376 176.150,157.200 175.600 L 156.880 174.600 156.868 175.600 M193.656 175.400 C 193.656 175.840,193.811 176.560,194.000 177.000 L 194.344 177.800 194.344 177.000 C 194.344 176.560,194.189 175.840,194.000 175.400 L 193.656 174.600 193.656 175.400 M231.400 177.200 C 231.250 177.673,231.217 178.150,231.327 178.260 C 231.437 178.370,231.650 178.073,231.800 177.600 C 231.950 177.127,231.983 176.650,231.873 176.540 C 231.763 176.430,231.550 176.727,231.400 177.200 M55.000 177.200 C 53.669 177.383,54.874 177.476,58.600 177.481 C 62.797 177.486,63.649 177.411,62.000 177.183 C 59.398 176.824,57.715 176.828,55.000 177.200 M170.412 177.600 C 170.412 177.930,170.587 178.470,170.800 178.800 C 171.145 179.333,171.188 179.333,171.188 178.800 C 171.188 178.470,171.013 177.930,170.800 177.600 C 170.455 177.067,170.412 177.067,170.412 177.600 M207.429 178.229 C 207.281 178.815,207.251 179.384,207.361 179.494 C 207.471 179.604,207.681 179.215,207.829 178.629 C 207.976 178.042,208.006 177.473,207.896 177.363 C 207.786 177.253,207.576 177.642,207.429 178.229 M49.000 178.063 C 48.340 178.283,47.549 178.543,47.243 178.641 C 46.936 178.739,46.758 178.891,46.846 178.979 C 46.934 179.068,48.175 178.806,49.603 178.398 C 51.031 177.991,51.750 177.658,51.200 177.660 C 50.650 177.662,49.660 177.843,49.000 178.063 M66.600 178.000 C 67.260 178.168,68.430 178.305,69.200 178.305 L 70.600 178.305 69.400 178.000 C 68.740 177.832,67.570 177.695,66.800 177.695 L 65.400 177.695 66.600 178.000 M119.067 178.267 C 118.565 178.769,118.762 191.802,119.280 192.320 C 119.822 192.862,124.005 192.918,126.800 192.420 C 128.215 192.169,127.593 192.089,123.890 192.050 L 119.181 192.000 119.290 185.300 L 119.400 178.600 123.000 178.376 L 126.600 178.151 122.967 178.076 C 120.968 178.034,119.213 178.120,119.067 178.267 M194.456 178.600 C 194.456 179.040,194.611 179.760,194.800 180.200 L 195.144 181.000 195.144 180.200 C 195.144 179.760,194.989 179.040,194.800 178.600 L 194.456 177.800 194.456 178.600 M72.000 178.800 C 73.467 179.270,75.294 179.270,74.200 178.800 C 73.760 178.611,72.860 178.462,72.200 178.468 C 71.030 178.479,71.025 178.488,72.000 178.800 M129.913 178.988 C 131.928 179.617,132.669 180.173,133.663 181.800 C 134.067 182.460,134.394 182.730,134.390 182.400 C 134.371 180.924,131.049 178.382,129.200 178.428 C 128.454 178.447,128.635 178.589,129.913 178.988 M157.763 185.600 C 157.763 189.791,157.882 191.958,158.059 191.000 C 158.221 190.120,158.354 187.690,158.354 185.600 C 158.354 183.510,158.221 181.080,158.059 180.200 C 157.882 179.242,157.763 181.409,157.763 185.600 M230.629 179.829 C 230.481 180.415,230.438 180.972,230.532 181.066 C 230.627 181.160,230.824 180.758,230.971 180.171 C 231.119 179.585,231.162 179.028,231.068 178.934 C 230.973 178.840,230.776 179.242,230.629 179.829 M44.600 180.112 C 43.112 181.211,41.613 182.927,40.717 184.557 C 39.536 186.704,39.949 186.702,41.180 184.555 C 42.296 182.611,43.416 181.440,45.617 179.921 C 46.157 179.548,46.420 179.238,46.200 179.234 C 45.980 179.229,45.260 179.624,44.600 180.112 M76.400 179.600 C 77.942 180.094,78.764 180.094,78.000 179.600 C 77.670 179.387,76.950 179.227,76.400 179.246 L 75.400 179.280 76.400 179.600 M171.234 180.000 C 171.246 180.330,171.411 180.960,171.600 181.400 L 171.944 182.200 171.966 181.400 C 171.978 180.960,171.813 180.330,171.600 180.000 C 171.255 179.467,171.215 179.467,171.234 180.000 M79.400 180.400 C 80.596 180.914,81.595 180.914,80.800 180.400 C 80.470 180.187,79.840 180.022,79.400 180.034 L 78.600 180.056 79.400 180.400 M206.629 181.429 C 206.481 182.015,206.451 182.584,206.561 182.694 C 206.671 182.804,206.881 182.415,207.029 181.829 C 207.176 181.242,207.206 180.673,207.096 180.563 C 206.986 180.453,206.776 180.842,206.629 181.429 M195.256 181.800 C 195.256 182.240,195.411 182.960,195.600 183.400 L 195.944 184.200 195.944 183.400 C 195.944 182.960,195.789 182.240,195.600 181.800 L 195.256 181.000 195.256 181.800 M229.800 182.400 C 229.650 182.873,229.617 183.350,229.727 183.460 C 229.837 183.570,230.050 183.273,230.200 182.800 C 230.350 182.327,230.383 181.850,230.273 181.740 C 230.163 181.630,229.950 181.927,229.800 182.400 M172.012 182.800 C 172.012 183.130,172.187 183.670,172.400 184.000 C 172.745 184.533,172.788 184.533,172.788 184.000 C 172.788 183.670,172.613 183.130,172.400 182.800 C 172.055 182.267,172.012 182.267,172.012 182.800 M205.800 184.400 C 205.648 185.091,205.614 185.747,205.724 185.857 C 205.834 185.967,206.048 185.491,206.200 184.800 C 206.352 184.109,206.386 183.453,206.276 183.343 C 206.166 183.233,205.952 183.709,205.800 184.400 M16.290 184.750 C 16.131 185.493,16.020 186.663,16.044 187.350 C 16.081 188.417,16.141 188.336,16.449 186.800 C 16.648 185.810,16.759 184.640,16.696 184.200 C 16.618 183.659,16.486 183.837,16.290 184.750 M134.514 185.400 C 134.517 186.500,134.595 186.903,134.687 186.295 C 134.779 185.686,134.777 184.786,134.682 184.295 C 134.587 183.803,134.511 184.300,134.514 185.400 M229.029 185.029 C 228.881 185.615,228.838 186.172,228.932 186.266 C 229.027 186.360,229.224 185.958,229.371 185.371 C 229.519 184.785,229.562 184.228,229.468 184.134 C 229.373 184.040,229.176 184.442,229.029 185.029 M196.034 185.000 C 196.022 185.440,196.187 186.070,196.400 186.400 C 196.914 187.195,196.914 186.196,196.400 185.000 L 196.056 184.200 196.034 185.000 M172.856 185.200 C 172.856 185.530,173.011 186.160,173.200 186.600 C 173.417 187.104,173.544 187.178,173.544 186.800 C 173.544 186.470,173.389 185.840,173.200 185.400 C 172.983 184.896,172.856 184.822,172.856 185.200 M205.000 187.600 C 204.848 188.291,204.814 188.947,204.924 189.057 C 205.034 189.167,205.248 188.691,205.400 188.000 C 205.552 187.309,205.586 186.653,205.476 186.543 C 205.366 186.433,205.152 186.909,205.000 187.600 M39.473 187.353 C 39.323 187.745,39.211 188.366,39.225 188.733 C 39.242 189.175,39.381 189.074,39.637 188.434 C 39.849 187.903,39.961 187.282,39.885 187.054 C 39.809 186.827,39.624 186.961,39.473 187.353 M228.273 187.353 C 228.123 187.745,228.011 188.366,228.025 188.733 C 228.042 189.175,228.181 189.074,228.437 188.434 C 228.649 187.903,228.761 187.282,228.685 187.054 C 228.609 186.827,228.424 186.961,228.273 187.353 M68.800 187.993 L 85.400 188.200 85.606 207.600 L 85.812 227.000 85.906 207.780 C 85.977 193.258,85.883 188.443,85.520 188.080 C 85.159 187.719,80.964 187.623,68.620 187.693 L 52.200 187.787 68.800 187.993 M134.000 188.240 C 134.000 188.591,133.441 189.401,132.758 190.040 C 132.074 190.678,131.698 191.200,131.922 191.200 C 132.489 191.200,134.400 188.862,134.400 188.169 C 134.400 187.856,134.310 187.600,134.200 187.600 C 134.090 187.600,134.000 187.888,134.000 188.240 M173.634 188.000 C 173.646 188.330,173.811 188.960,174.000 189.400 L 174.344 190.200 174.366 189.400 C 174.378 188.960,174.213 188.330,174.000 188.000 C 173.655 187.467,173.615 187.467,173.634 188.000 M196.834 188.200 C 196.822 188.640,196.987 189.270,197.200 189.600 C 197.714 190.395,197.714 189.396,197.200 188.200 L 196.856 187.400 196.834 188.200 M51.789 198.000 L 51.800 208.200 57.000 208.400 L 62.200 208.600 62.321 211.159 C 62.480 214.543,62.449 214.561,56.701 214.542 C 52.776 214.529,52.158 214.597,53.600 214.884 C 55.595 215.280,61.555 215.122,62.315 214.653 C 62.822 214.339,63.005 209.799,62.557 208.633 C 62.353 208.101,61.492 208.000,57.164 208.000 L 52.014 208.000 51.896 197.900 L 51.779 187.800 51.789 198.000 M15.529 192.900 C 15.458 194.715,15.501 197.730,15.625 199.600 C 15.803 202.283,15.867 201.587,15.925 196.300 C 16.003 189.319,15.754 187.178,15.529 192.900 M204.200 190.800 C 204.048 191.491,204.014 192.147,204.124 192.257 C 204.234 192.367,204.448 191.891,204.600 191.200 C 204.752 190.509,204.786 189.853,204.676 189.743 C 204.566 189.633,204.352 190.109,204.200 190.800 M227.400 190.400 C 227.250 190.873,227.217 191.350,227.327 191.460 C 227.437 191.570,227.650 191.273,227.800 190.800 C 227.950 190.327,227.983 189.850,227.873 189.740 C 227.763 189.630,227.550 189.927,227.400 190.400 M38.650 191.250 C 38.331 192.843,38.397 200.306,38.740 201.522 C 38.883 202.030,39.000 199.645,39.000 196.222 C 39.000 189.383,39.006 189.470,38.650 191.250 M197.656 191.000 C 197.656 191.440,197.811 192.160,198.000 192.600 L 198.344 193.400 198.344 192.600 C 198.344 192.160,198.189 191.440,198.000 191.000 L 197.656 190.200 197.656 191.000 M129.800 191.600 C 129.029 191.931,129.031 191.945,129.876 191.972 C 130.358 191.987,130.864 191.820,131.000 191.600 C 131.292 191.127,130.901 191.127,129.800 191.600 M226.673 192.553 C 226.523 192.945,226.411 193.566,226.425 193.933 C 226.442 194.375,226.581 194.274,226.837 193.634 C 227.049 193.103,227.161 192.482,227.085 192.254 C 227.009 192.027,226.824 192.161,226.673 192.553 M175.234 193.200 C 175.246 193.530,175.411 194.160,175.600 194.600 L 175.944 195.400 175.966 194.600 C 175.978 194.160,175.813 193.530,175.600 193.200 C 175.255 192.667,175.215 192.667,175.234 193.200 M203.429 193.829 C 203.281 194.415,203.251 194.984,203.361 195.094 C 203.471 195.204,203.681 194.815,203.829 194.229 C 203.976 193.642,204.006 193.073,203.896 192.963 C 203.786 192.853,203.576 193.242,203.429 193.829 M156.978 194.578 C 156.827 195.381,156.804 196.137,156.926 196.260 C 157.048 196.382,157.272 195.825,157.422 195.022 C 157.573 194.219,157.596 193.463,157.474 193.340 C 157.352 193.218,157.128 193.775,156.978 194.578 M198.456 194.200 C 198.456 194.640,198.611 195.360,198.800 195.800 L 199.144 196.600 199.144 195.800 C 199.144 195.360,198.989 194.640,198.800 194.200 L 198.456 193.400 198.456 194.200 M225.800 195.600 C 225.650 196.073,225.617 196.550,225.727 196.660 C 225.837 196.770,226.050 196.473,226.200 196.000 C 226.350 195.527,226.383 195.050,226.273 194.940 C 226.163 194.830,225.950 195.127,225.800 195.600 M176.012 196.000 C 176.012 196.330,176.187 196.870,176.400 197.200 C 176.745 197.733,176.788 197.733,176.788 197.200 C 176.788 196.870,176.613 196.330,176.400 196.000 C 176.055 195.467,176.012 195.467,176.012 196.000 M202.629 197.029 C 202.481 197.615,202.451 198.184,202.561 198.294 C 202.671 198.404,202.881 198.015,203.029 197.429 C 203.176 196.842,203.206 196.273,203.096 196.163 C 202.986 196.053,202.776 196.442,202.629 197.029 M156.200 197.600 C 156.050 198.073,156.017 198.550,156.127 198.660 C 156.237 198.770,156.450 198.473,156.600 198.000 C 156.750 197.527,156.783 197.050,156.673 196.940 C 156.563 196.830,156.350 197.127,156.200 197.600 M199.234 197.400 C 199.222 197.840,199.387 198.470,199.600 198.800 C 200.114 199.595,200.114 198.596,199.600 197.400 L 199.256 196.600 199.234 197.400 M225.073 197.753 C 224.923 198.145,224.811 198.766,224.825 199.133 C 224.842 199.575,224.981 199.474,225.237 198.834 C 225.449 198.303,225.561 197.682,225.485 197.454 C 225.409 197.227,225.224 197.361,225.073 197.753 M176.834 198.400 C 176.846 198.730,177.011 199.360,177.200 199.800 L 177.544 200.600 177.566 199.800 C 177.578 199.360,177.413 198.730,177.200 198.400 C 176.855 197.867,176.815 197.867,176.834 198.400 M201.850 200.050 C 201.517 201.717,201.840 202.040,202.200 200.400 C 202.352 199.709,202.393 199.059,202.291 198.958 C 202.189 198.856,201.991 199.347,201.850 200.050 M154.918 200.909 C 153.609 203.567,151.859 205.741,149.661 207.436 C 148.546 208.296,147.626 209.224,147.617 209.498 C 147.583 210.508,153.905 203.770,154.972 201.660 C 155.567 200.483,155.986 199.452,155.902 199.369 C 155.819 199.286,155.376 199.979,154.918 200.909 M200.030 200.481 C 199.991 201.358,200.827 203.200,201.264 203.200 C 201.449 203.200,201.600 202.900,201.600 202.533 C 201.600 202.167,201.469 201.997,201.310 202.157 C 201.150 202.316,200.804 201.851,200.540 201.123 C 200.277 200.396,200.047 200.107,200.030 200.481 M224.200 200.800 C 224.050 201.273,224.017 201.750,224.127 201.860 C 224.237 201.970,224.450 201.673,224.600 201.200 C 224.750 200.727,224.783 200.250,224.673 200.140 C 224.563 200.030,224.350 200.327,224.200 200.800 M177.612 201.200 C 177.612 201.530,177.787 202.070,178.000 202.400 C 178.345 202.933,178.388 202.933,178.388 202.400 C 178.388 202.070,178.213 201.530,178.000 201.200 C 177.655 200.667,177.612 200.667,177.612 201.200 M223.473 202.953 C 223.323 203.345,223.211 203.966,223.225 204.333 C 223.242 204.775,223.381 204.674,223.637 204.034 C 223.849 203.503,223.961 202.882,223.885 202.654 C 223.809 202.427,223.624 202.561,223.473 202.953 M178.434 203.600 C 178.446 203.930,178.611 204.560,178.800 205.000 L 179.144 205.800 179.166 205.000 C 179.178 204.560,179.013 203.930,178.800 203.600 C 178.455 203.067,178.415 203.067,178.434 203.600 M16.086 205.200 C 16.083 205.970,16.224 207.050,16.400 207.600 C 16.850 209.004,16.865 207.537,16.423 205.400 L 16.092 203.800 16.086 205.200 M222.600 206.000 C 222.450 206.473,222.417 206.950,222.527 207.060 C 222.637 207.170,222.850 206.873,223.000 206.400 C 223.150 205.927,223.183 205.450,223.073 205.340 C 222.963 205.230,222.750 205.527,222.600 206.000 M40.009 205.716 C 39.927 208.515,47.041 214.422,50.457 214.392 C 50.976 214.387,50.161 213.946,48.646 213.411 C 45.327 212.240,42.598 210.051,41.109 207.367 C 40.509 206.285,40.014 205.542,40.009 205.716 M179.212 206.400 C 179.212 206.730,179.387 207.270,179.600 207.600 C 179.945 208.133,179.988 208.133,179.988 207.600 C 179.988 207.270,179.813 206.730,179.600 206.400 C 179.255 205.867,179.212 205.867,179.212 206.400 M221.829 208.629 C 221.681 209.215,221.638 209.772,221.732 209.866 C 221.827 209.960,222.024 209.558,222.171 208.971 C 222.319 208.385,222.362 207.828,222.268 207.734 C 222.173 207.640,221.976 208.042,221.829 208.629 M180.034 208.800 C 180.046 209.130,180.211 209.760,180.400 210.200 L 180.744 211.000 180.766 210.200 C 180.778 209.760,180.613 209.130,180.400 208.800 C 180.055 208.267,180.015 208.267,180.034 208.800 M16.856 209.800 C 16.856 210.240,17.011 210.960,17.200 211.400 L 17.544 212.200 17.544 211.400 C 17.544 210.960,17.389 210.240,17.200 209.800 L 16.856 209.000 16.856 209.800 M148.000 210.550 C 148.000 210.841,150.071 214.400,150.241 214.400 C 150.336 214.400,149.957 213.500,149.400 212.400 C 148.531 210.686,148.000 209.983,148.000 210.550 M221.000 211.200 C 220.850 211.673,220.817 212.150,220.927 212.260 C 221.037 212.370,221.250 212.073,221.400 211.600 C 221.550 211.127,221.583 210.650,221.473 210.540 C 221.363 210.430,221.150 210.727,221.000 211.200 M180.812 211.600 C 180.812 211.930,180.987 212.470,181.200 212.800 C 181.545 213.333,181.588 213.333,181.588 212.800 C 181.588 212.470,181.413 211.930,181.200 211.600 C 180.855 211.067,180.812 211.067,180.812 211.600 M17.619 212.629 C 17.587 213.346,18.929 217.013,19.069 216.593 C 19.141 216.377,18.848 215.300,18.418 214.200 C 17.989 213.100,17.629 212.393,17.619 212.629 M220.229 213.829 C 220.081 214.415,220.038 214.972,220.132 215.066 C 220.227 215.160,220.424 214.758,220.571 214.171 C 220.719 213.585,220.762 213.028,220.668 212.934 C 220.573 212.840,220.376 213.242,220.229 213.829 M181.656 214.000 C 181.656 214.330,181.811 214.960,182.000 215.400 C 182.217 215.904,182.344 215.978,182.344 215.600 C 182.344 215.270,182.189 214.640,182.000 214.200 C 181.783 213.696,181.656 213.622,181.656 214.000 M150.400 215.120 C 150.400 215.296,150.554 215.611,150.742 215.820 C 150.931 216.029,152.031 218.000,153.188 220.200 C 154.997 223.642,156.456 225.963,155.950 224.594 C 155.121 222.353,150.400 214.294,150.400 215.120 M219.473 216.153 C 219.323 216.545,219.211 217.166,219.225 217.533 C 219.242 217.975,219.381 217.874,219.637 217.234 C 219.849 216.703,219.961 216.082,219.885 215.854 C 219.809 215.627,219.624 215.761,219.473 216.153 M124.019 216.300 C 124.030 216.465,126.235 220.920,128.919 226.200 L 133.800 235.800 146.574 235.906 C 154.819 235.974,159.492 235.868,159.754 235.606 C 160.029 235.331,155.883 235.200,146.956 235.200 L 133.752 235.200 129.033 225.600 C 124.717 216.819,123.963 215.421,124.019 216.300 M182.434 216.800 C 182.446 217.130,182.611 217.760,182.800 218.200 L 183.144 219.000 183.166 218.200 C 183.178 217.760,183.013 217.130,182.800 216.800 C 182.455 216.267,182.415 216.267,182.434 216.800 M218.600 219.200 C 218.450 219.673,218.417 220.150,218.527 220.260 C 218.637 220.370,218.850 220.073,219.000 219.600 C 219.150 219.127,219.183 218.650,219.073 218.540 C 218.963 218.430,218.750 218.727,218.600 219.200 M21.388 221.578 C 22.435 223.602,25.930 227.524,28.111 229.121 C 30.715 231.029,31.873 231.662,30.000 230.154 C 27.058 227.784,23.556 224.202,22.361 222.339 C 20.974 220.178,20.454 219.771,21.388 221.578 M217.873 221.353 C 217.723 221.745,217.611 222.366,217.625 222.733 C 217.642 223.175,217.781 223.074,218.037 222.434 C 218.249 221.903,218.361 221.282,218.285 221.054 C 218.209 220.827,218.024 220.961,217.873 221.353 M184.034 222.000 C 184.046 222.330,184.211 222.960,184.400 223.400 L 184.744 224.200 184.766 223.400 C 184.778 222.960,184.613 222.330,184.400 222.000 C 184.055 221.467,184.015 221.467,184.034 222.000 M217.000 224.400 C 216.850 224.873,216.817 225.350,216.927 225.460 C 217.037 225.570,217.250 225.273,217.400 224.800 C 217.550 224.327,217.583 223.850,217.473 223.740 C 217.363 223.630,217.150 223.927,217.000 224.400 M184.812 224.800 C 184.812 225.130,184.987 225.670,185.200 226.000 C 185.545 226.533,185.588 226.533,185.588 226.000 C 185.588 225.670,185.413 225.130,185.200 224.800 C 184.855 224.267,184.812 224.267,184.812 224.800 M156.000 225.520 C 156.000 225.696,156.159 226.011,156.354 226.220 C 156.549 226.429,157.380 227.913,158.202 229.519 C 159.024 231.124,159.775 232.358,159.873 232.261 C 160.058 232.075,156.447 225.200,156.164 225.200 C 156.074 225.200,156.000 225.344,156.000 225.520 M216.273 226.553 C 216.123 226.945,216.011 227.566,216.025 227.933 C 216.042 228.375,216.181 228.274,216.437 227.634 C 216.649 227.103,216.761 226.482,216.685 226.254 C 216.609 226.027,216.424 226.161,216.273 226.553 M185.634 227.200 C 185.646 227.530,185.811 228.160,186.000 228.600 L 186.344 229.400 186.366 228.600 C 186.378 228.160,186.213 227.530,186.000 227.200 C 185.655 226.667,185.615 226.667,185.634 227.200 M83.378 228.464 C 82.290 229.159,79.960 230.427,78.200 231.283 C 76.440 232.138,75.450 232.723,76.000 232.582 C 78.321 231.988,86.753 227.200,85.478 227.200 C 85.411 227.200,84.466 227.769,83.378 228.464 M215.400 229.600 C 215.250 230.073,215.217 230.550,215.327 230.660 C 215.437 230.770,215.650 230.473,215.800 230.000 C 215.950 229.527,215.983 229.050,215.873 228.940 C 215.763 228.830,215.550 229.127,215.400 229.600 M186.412 230.000 C 186.412 230.330,186.587 230.870,186.800 231.200 C 187.145 231.733,187.188 231.733,187.188 231.200 C 187.188 230.870,187.013 230.330,186.800 230.000 C 186.455 229.467,186.412 229.467,186.412 230.000 M31.600 231.426 C 31.600 231.789,37.611 234.463,38.077 234.308 C 38.311 234.230,37.220 233.663,35.653 233.049 C 34.086 232.434,32.703 231.767,32.579 231.566 C 32.332 231.166,31.600 231.062,31.600 231.426 M214.673 231.753 C 214.523 232.145,214.411 232.766,214.425 233.133 C 214.442 233.575,214.581 233.474,214.837 232.834 C 215.049 232.303,215.161 231.682,215.085 231.454 C 215.009 231.227,214.824 231.361,214.673 231.753 M187.234 232.400 C 187.246 232.730,187.411 233.360,187.600 233.800 L 187.944 234.600 187.966 233.800 C 187.978 233.360,187.813 232.730,187.600 232.400 C 187.255 231.867,187.215 231.867,187.234 232.400 M69.600 234.400 C 68.390 234.797,67.760 235.125,68.200 235.130 C 68.640 235.134,69.900 234.806,71.000 234.400 C 73.568 233.452,72.489 233.452,69.600 234.400 M213.882 234.531 C 213.637 235.169,212.632 235.213,200.808 235.111 C 193.763 235.050,188.000 235.116,188.000 235.257 C 188.000 235.888,189.984 236.000,201.156 236.000 C 213.391 236.000,214.809 235.826,214.328 234.385 C 214.193 233.978,214.080 234.015,213.882 234.531 M39.400 234.800 C 40.596 235.314,41.595 235.314,40.800 234.800 C 40.470 234.587,39.840 234.422,39.400 234.434 L 38.600 234.456 39.400 234.800 M42.400 235.600 C 43.867 236.070,45.694 236.070,44.600 235.600 C 44.160 235.411,43.260 235.262,42.600 235.268 C 41.430 235.279,41.425 235.288,42.400 235.600 M64.400 235.600 L 63.400 235.920 64.400 235.920 C 64.950 235.920,65.850 235.776,66.400 235.600 L 67.400 235.280 66.400 235.280 C 65.850 235.280,64.950 235.424,64.400 235.600 M244.200 235.600 C 244.531 236.136,281.971 236.136,282.800 235.600 C 283.192 235.347,276.558 235.210,263.676 235.206 C 250.628 235.202,244.036 235.335,244.200 235.600 M47.842 236.477 C 49.860 236.836,59.340 236.836,61.358 236.477 C 62.215 236.325,59.174 236.200,54.600 236.200 C 50.026 236.200,46.985 236.325,47.842 236.477 M306.800 239.567 C 306.800 241.086,306.621 242.006,306.300 242.135 C 306.001 242.256,306.082 242.350,306.500 242.368 C 307.098 242.395,307.200 242.022,307.200 239.800 C 307.200 238.370,307.110 237.200,307.000 237.200 C 306.890 237.200,306.800 238.265,306.800 239.567 M89.491 242.689 C 90.201 242.777,91.461 242.779,92.291 242.692 C 93.121 242.605,92.540 242.533,91.000 242.531 C 89.460 242.529,88.781 242.600,89.491 242.689 M161.300 242.691 C 162.125 242.778,163.475 242.778,164.300 242.691 C 165.125 242.605,164.450 242.534,162.800 242.534 C 161.150 242.534,160.475 242.605,161.300 242.691 M238.100 242.691 C 238.925 242.778,240.275 242.778,241.100 242.691 C 241.925 242.605,241.250 242.534,239.600 242.534 C 237.950 242.534,237.275 242.605,238.100 242.691 " stroke="none" fill="#a4a499" fill-rule="evenodd"></path></g></svg>