<svg id="svg" version="1.1" xmlns="http://www.w3.org/2000/svg" xmlns:xlink="http://www.w3.org/1999/xlink" width="400" height="400" viewBox="0, 0, 400,400"><g id="svgg"><path id="path0" d="M0.000 200.000 L 0.000 400.000 200.000 400.000 L 400.000 400.000 400.000 200.000 L 400.000 0.000 200.000 0.000 L 0.000 0.000 0.000 200.000 M307.400 152.200 L 307.400 155.000 309.169 155.126 C 310.664 155.233,311.159 155.506,312.369 156.888 C 314.124 158.892,315.816 159.654,319.200 159.963 L 321.800 160.200 323.000 162.495 C 324.518 165.398,324.977 165.837,327.414 166.714 C 330.901 167.969,331.060 168.133,331.640 171.052 C 332.201 173.874,332.971 174.951,336.120 177.321 L 337.609 178.442 337.563 181.769 C 337.513 185.331,337.796 186.200,339.658 188.186 C 340.862 189.470,341.156 191.304,340.400 192.805 C 340.180 193.242,339.820 193.958,339.600 194.395 C 338.969 195.648,339.130 197.705,340.000 199.506 C 341.235 202.061,341.054 203.385,339.162 205.645 L 337.525 207.601 337.563 211.187 L 337.602 214.774 335.474 216.345 C 332.836 218.294,332.257 219.178,331.669 222.157 C 331.087 225.104,330.886 225.338,328.206 226.181 C 325.315 227.090,324.321 227.935,323.023 230.589 C 321.727 233.237,321.146 233.600,318.200 233.600 C 315.469 233.600,314.781 233.927,312.154 236.479 C 310.394 238.188,309.919 238.447,308.754 238.333 L 307.400 238.200 307.507 240.245 C 307.577 241.601,307.429 242.444,307.065 242.746 C 306.657 243.085,268.524 243.175,157.958 243.101 L 9.400 243.000 9.297 196.600 C 9.240 171.080,9.280 149.975,9.385 149.699 C 9.537 149.300,39.568 149.219,158.488 149.299 L 307.400 149.400 307.400 152.200 M49.937 156.596 C 49.804 156.730,48.458 156.998,46.947 157.193 C 43.033 157.698,39.816 158.412,37.700 159.246 C 32.363 161.347,29.018 163.361,26.172 166.185 C 24.275 168.067,21.766 171.751,20.442 174.600 C 19.931 175.700,19.352 176.913,19.156 177.295 C 18.960 177.677,18.800 178.341,18.800 178.771 C 18.800 179.201,18.639 179.652,18.442 179.774 C 18.245 179.895,17.984 180.671,17.862 181.497 C 17.740 182.324,17.411 184.260,17.131 185.800 C 16.564 188.914,16.424 202.611,16.926 205.800 C 18.072 213.077,20.316 218.727,24.028 223.682 C 31.390 233.511,48.972 238.220,65.600 234.817 C 66.810 234.569,68.387 234.264,69.104 234.139 C 69.821 234.014,70.506 233.751,70.627 233.556 C 70.748 233.360,71.251 233.200,71.744 233.200 C 72.237 233.200,72.811 233.051,73.020 232.870 C 73.229 232.688,74.210 232.289,75.200 231.983 C 77.329 231.326,83.248 228.288,84.700 227.108 C 85.087 226.794,85.200 222.388,85.200 207.551 L 85.200 188.400 68.800 188.400 L 52.400 188.400 52.400 198.000 L 52.400 207.600 57.610 207.600 L 62.820 207.600 63.210 208.626 C 63.929 210.517,63.692 213.908,62.777 214.823 C 61.632 215.968,51.793 215.694,48.600 214.428 C 44.108 212.647,41.870 210.720,40.096 207.108 C 37.446 201.714,37.375 190.685,39.955 185.080 C 41.484 181.756,45.737 178.000,47.970 178.000 C 48.339 178.000,48.811 177.837,49.020 177.639 C 50.061 176.649,60.778 176.332,66.600 177.118 C 72.089 177.859,77.483 178.829,78.800 179.313 C 79.130 179.434,79.898 179.642,80.507 179.776 L 81.615 180.019 81.507 170.553 C 81.417 162.603,81.304 161.042,80.800 160.805 C 80.470 160.651,79.797 160.316,79.305 160.062 C 78.813 159.808,78.059 159.600,77.629 159.600 C 77.199 159.600,76.748 159.440,76.627 159.244 C 76.506 159.049,75.821 158.792,75.104 158.673 C 74.387 158.555,72.990 158.260,72.000 158.018 C 67.812 156.996,64.987 156.701,57.790 156.532 C 53.604 156.434,50.070 156.463,49.937 156.596 M96.000 195.966 L 96.000 234.800 107.000 234.800 L 118.000 234.800 118.000 224.629 C 118.000 213.001,117.945 213.200,121.167 213.200 C 123.490 213.200,123.710 213.429,125.986 218.200 C 126.930 220.180,129.137 224.725,130.890 228.300 L 134.077 234.800 146.839 234.800 C 161.653 234.800,160.682 235.191,158.053 230.286 C 157.202 228.699,155.832 226.140,155.007 224.600 C 154.182 223.060,153.056 220.990,152.505 220.000 C 151.954 219.010,150.417 216.140,149.090 213.623 L 146.678 209.046 147.635 208.423 C 152.250 205.421,155.271 200.523,156.780 193.600 C 157.334 191.057,157.149 179.245,156.511 176.400 C 154.946 169.422,150.319 163.575,144.200 160.843 C 143.540 160.548,142.687 160.148,142.305 159.953 C 141.923 159.759,141.259 159.600,140.829 159.600 C 140.399 159.600,139.950 159.443,139.832 159.252 C 139.714 159.060,138.668 158.778,137.508 158.624 C 136.349 158.471,134.140 158.169,132.600 157.953 C 131.060 157.738,122.195 157.465,112.900 157.347 L 96.000 157.133 96.000 195.966 M166.000 159.005 C 166.000 159.998,166.162 161.123,166.361 161.505 C 166.560 161.887,166.940 163.010,167.207 164.000 C 167.473 164.990,167.830 166.160,168.000 166.600 C 168.170 167.040,168.530 168.210,168.800 169.200 C 169.070 170.190,169.430 171.360,169.600 171.800 C 169.770 172.240,170.133 173.410,170.408 174.400 C 170.683 175.390,171.219 177.190,171.600 178.400 C 171.981 179.610,172.517 181.410,172.792 182.400 C 173.067 183.390,173.430 184.560,173.600 185.000 C 173.770 185.440,174.130 186.610,174.400 187.600 C 174.670 188.590,175.030 189.760,175.200 190.200 C 175.370 190.640,175.730 191.810,176.000 192.800 C 176.270 193.790,176.630 194.960,176.800 195.400 C 176.970 195.840,177.327 197.010,177.593 198.000 C 177.860 198.990,178.240 200.113,178.439 200.495 C 178.638 200.877,178.800 201.554,178.800 202.000 C 178.800 202.446,178.959 203.123,179.154 203.505 C 179.501 204.186,180.587 207.622,181.588 211.200 C 181.865 212.190,182.230 213.360,182.400 213.800 C 182.570 214.240,182.930 215.410,183.200 216.400 C 183.470 217.390,183.830 218.560,184.000 219.000 C 184.170 219.440,184.530 220.610,184.800 221.600 C 185.070 222.590,185.430 223.760,185.600 224.200 C 185.770 224.640,186.134 225.810,186.408 226.800 C 187.376 230.286,187.714 231.408,188.035 232.200 C 188.213 232.640,188.416 233.360,188.485 233.800 C 188.608 234.580,188.920 234.600,200.996 234.600 L 213.381 234.600 213.744 233.400 C 213.943 232.740,214.242 231.840,214.408 231.400 C 214.573 230.960,214.934 229.790,215.208 228.800 C 216.121 225.511,216.508 224.208,216.810 223.400 C 216.974 222.960,217.330 221.790,217.600 220.800 C 217.870 219.810,218.230 218.640,218.400 218.200 C 218.570 217.760,218.930 216.590,219.200 215.600 C 219.470 214.610,219.830 213.440,220.000 213.000 C 220.170 212.560,220.530 211.390,220.800 210.400 C 221.070 209.410,221.430 208.240,221.600 207.800 C 221.770 207.360,222.130 206.190,222.400 205.200 C 222.670 204.210,223.030 203.040,223.200 202.600 C 223.370 202.160,223.734 200.990,224.008 200.000 C 224.921 196.711,225.308 195.408,225.610 194.600 C 225.774 194.160,226.130 192.990,226.400 192.000 C 226.670 191.010,227.030 189.840,227.200 189.400 C 227.370 188.960,227.730 187.790,228.000 186.800 C 228.270 185.810,228.630 184.640,228.800 184.200 C 228.970 183.760,229.330 182.590,229.600 181.600 C 229.870 180.610,230.230 179.440,230.400 179.000 C 230.570 178.560,230.930 177.390,231.200 176.400 C 231.470 175.410,231.826 174.240,231.990 173.800 C 232.292 172.992,232.679 171.689,233.592 168.400 C 233.866 167.410,234.230 166.240,234.400 165.800 C 234.570 165.360,234.927 164.190,235.193 163.200 C 235.460 162.210,235.840 161.087,236.039 160.705 C 236.238 160.323,236.400 159.378,236.400 158.605 L 236.400 157.200 225.214 157.200 C 212.880 157.200,213.200 157.132,213.200 159.750 C 213.200 160.302,213.040 160.852,212.844 160.973 C 212.649 161.094,212.392 161.779,212.273 162.496 C 212.155 163.213,211.865 164.565,211.629 165.500 C 211.393 166.435,211.020 167.920,210.800 168.800 C 210.580 169.680,210.207 171.165,209.971 172.100 C 209.735 173.035,209.445 174.387,209.327 175.104 C 209.208 175.821,208.951 176.506,208.756 176.627 C 208.560 176.748,208.400 177.229,208.400 177.695 C 208.400 178.162,208.232 179.096,208.027 179.772 C 207.681 180.912,207.473 181.706,206.400 186.000 C 205.178 190.890,205.148 191.005,204.054 195.100 C 203.804 196.035,203.433 197.475,203.228 198.300 C 202.372 201.749,201.507 204.400,201.237 204.400 C 200.779 204.400,199.600 201.670,199.600 200.610 C 199.600 200.080,199.440 199.548,199.244 199.427 C 199.049 199.306,198.792 198.621,198.673 197.904 C 198.555 197.187,198.265 195.835,198.029 194.900 C 197.793 193.965,197.420 192.480,197.200 191.600 C 196.980 190.720,196.607 189.235,196.371 188.300 C 196.135 187.365,195.845 186.013,195.727 185.296 C 195.608 184.579,195.351 183.894,195.156 183.773 C 194.960 183.652,194.800 182.944,194.800 182.200 C 194.800 181.456,194.640 180.748,194.444 180.627 C 194.249 180.506,193.992 179.821,193.873 179.104 C 193.755 178.387,193.473 177.080,193.247 176.200 C 192.299 172.506,191.930 170.928,191.727 169.696 C 191.608 168.979,191.351 168.294,191.156 168.173 C 190.960 168.052,190.800 167.571,190.800 167.105 C 190.800 166.638,190.632 165.704,190.427 165.028 C 190.222 164.353,189.862 163.035,189.627 162.100 C 189.392 161.165,188.991 159.680,188.736 158.800 L 188.272 157.200 177.136 157.200 L 166.000 157.200 166.000 159.005 M244.400 195.940 L 244.400 234.679 262.900 234.901 C 273.075 235.022,281.477 235.048,281.571 234.957 C 282.152 234.395,279.890 233.622,277.600 233.600 C 274.597 233.571,274.144 233.294,272.794 230.664 C 271.587 228.313,270.070 226.957,268.034 226.409 C 265.553 225.741,264.481 224.647,264.195 222.489 C 263.773 219.298,263.239 218.473,260.300 216.462 L 258.400 215.162 258.400 211.754 C 258.400 208.108,258.254 207.664,256.159 204.919 C 254.640 202.930,254.554 202.468,255.366 200.660 C 256.847 197.359,256.892 196.663,255.815 193.801 C 254.510 190.335,254.490 190.491,256.600 187.685 L 258.400 185.290 258.400 181.702 L 258.400 178.113 260.559 176.680 C 262.687 175.267,264.000 173.437,264.000 171.885 C 264.000 170.062,264.903 168.156,266.088 167.475 C 267.190 166.843,267.279 166.643,267.055 165.290 C 266.920 164.470,266.807 162.315,266.804 160.500 L 266.800 157.200 255.600 157.200 L 244.400 157.200 244.400 195.940 M131.435 178.520 C 136.450 181.139,136.736 189.645,131.879 191.732 C 127.971 193.411,119.183 193.864,118.414 192.426 C 117.793 191.267,117.869 178.698,118.500 178.037 C 119.225 177.278,129.814 177.674,131.435 178.520 " stroke="none" fill="#ece3d3" fill-rule="evenodd"></path><path id="path1" d="M49.200 150.000 L 9.800 150.200 9.800 196.200 L 9.800 242.200 158.112 242.301 C 299.083 242.396,306.439 242.366,306.712 241.701 C 307.195 240.526,307.063 150.903,306.579 150.418 C 306.111 149.951,118.803 149.647,49.200 150.000 M68.000 156.389 C 73.466 157.516,74.282 157.699,75.600 158.093 C 77.971 158.803,81.374 160.111,81.900 160.514 C 82.276 160.803,82.400 163.359,82.400 170.849 C 82.400 182.201,82.794 181.285,78.443 180.049 C 76.989 179.636,74.450 179.084,72.800 178.823 C 71.150 178.563,68.720 178.159,67.400 177.927 C 62.952 177.144,52.594 177.379,49.400 178.336 C 41.627 180.664,39.057 185.038,39.021 196.000 C 38.997 203.484,39.386 205.112,42.144 209.084 C 44.964 213.146,53.433 215.696,60.558 214.627 L 62.400 214.351 62.400 211.387 L 62.400 208.423 57.100 208.312 L 51.800 208.200 51.693 198.100 L 51.586 188.000 68.593 188.000 L 85.600 188.000 85.600 207.753 L 85.600 227.506 83.300 228.870 C 80.332 230.629,75.805 232.800,75.105 232.800 C 74.805 232.800,74.389 232.951,74.180 233.137 C 72.571 234.562,60.667 236.800,54.693 236.800 C 34.720 236.800,21.040 227.445,17.260 211.200 C 17.029 210.210,16.611 208.410,16.329 207.200 C 15.519 203.714,15.662 188.238,16.542 184.200 C 19.417 171.004,24.802 164.045,36.000 159.054 C 42.581 156.120,59.759 154.690,68.000 156.389 M133.776 157.226 C 139.954 158.312,140.873 158.568,144.637 160.254 C 154.309 164.584,159.573 176.105,158.013 189.527 C 156.941 198.758,154.374 204.406,149.715 207.790 C 147.670 209.275,147.659 209.455,149.400 212.640 C 150.170 214.048,151.455 216.415,152.255 217.900 C 153.055 219.385,154.294 221.680,155.007 223.000 C 159.776 231.826,160.000 232.316,160.000 233.946 L 160.000 235.600 146.836 235.600 L 133.672 235.600 128.437 225.000 L 123.202 214.400 121.208 214.400 L 119.213 214.400 119.107 224.900 L 119.000 235.400 107.200 235.400 L 95.400 235.400 95.298 196.100 L 95.196 156.800 113.274 156.800 C 124.282 156.800,132.300 156.967,133.776 157.226 M189.029 157.247 C 189.181 157.493,189.448 158.258,189.622 158.947 C 189.796 159.636,190.864 163.800,191.994 168.200 C 193.125 172.600,194.926 179.620,195.997 183.800 C 201.694 206.031,200.980 203.934,201.786 200.800 C 201.928 200.250,202.769 197.010,203.656 193.600 C 204.543 190.190,205.417 186.770,205.600 186.000 C 205.782 185.230,206.834 181.090,207.938 176.800 C 209.041 172.510,210.636 166.300,211.482 163.000 L 213.019 157.000 225.010 157.000 L 237.000 157.000 236.880 159.000 C 236.814 160.100,236.601 161.450,236.406 162.000 C 236.211 162.550,235.488 164.890,234.800 167.200 C 234.112 169.510,233.392 171.850,233.201 172.400 C 233.011 172.950,232.460 174.750,231.978 176.400 C 231.497 178.050,230.789 180.390,230.407 181.600 C 230.024 182.810,229.304 185.150,228.807 186.800 C 228.310 188.450,227.757 190.250,227.577 190.800 C 227.398 191.350,226.688 193.690,226.000 196.000 C 225.312 198.310,224.592 200.650,224.401 201.200 C 224.211 201.750,223.660 203.550,223.178 205.200 C 222.697 206.850,221.960 209.280,221.542 210.600 C 221.124 211.920,220.622 213.540,220.425 214.200 C 218.716 219.939,217.491 223.964,217.200 224.800 C 217.008 225.350,216.293 227.690,215.609 230.000 C 214.926 232.310,214.220 234.470,214.040 234.800 C 213.760 235.314,211.887 235.400,200.989 235.400 L 188.265 235.400 187.375 232.600 C 186.886 231.060,186.085 228.450,185.594 226.800 C 185.104 225.150,184.389 222.810,184.007 221.600 C 183.624 220.390,182.904 218.050,182.407 216.400 C 181.910 214.750,181.357 212.950,181.177 212.400 C 180.998 211.850,180.288 209.510,179.600 207.200 C 178.912 204.890,178.192 202.550,178.001 202.000 C 177.811 201.450,177.260 199.650,176.778 198.000 C 176.297 196.350,175.589 194.010,175.207 192.800 C 174.824 191.590,174.104 189.250,173.607 187.600 C 173.110 185.950,172.557 184.150,172.377 183.600 C 172.198 183.050,171.488 180.710,170.800 178.400 C 170.112 176.090,169.392 173.750,169.201 173.200 C 169.011 172.650,168.460 170.850,167.978 169.200 C 167.497 167.550,166.774 165.210,166.372 164.000 C 165.970 162.790,165.519 160.675,165.369 159.300 L 165.097 156.800 176.925 156.800 C 185.211 156.800,188.836 156.934,189.029 157.247 M267.600 185.396 L 267.600 213.991 284.100 214.096 L 300.600 214.200 300.600 224.800 L 300.600 235.400 272.300 235.503 L 244.000 235.605 244.000 196.203 L 244.000 156.800 255.800 156.800 L 267.600 156.800 267.600 185.396 M119.290 185.261 L 119.400 192.200 121.494 192.321 C 130.458 192.837,134.402 190.674,134.399 185.241 C 134.396 179.978,132.517 178.694,124.490 178.469 L 119.181 178.321 119.290 185.261 " stroke="none" fill="#464535" fill-rule="evenodd"></path><path id="path2" d="M307.700 155.465 C 307.305 155.624,307.200 164.225,307.200 196.587 L 307.200 237.507 308.100 237.748 C 309.807 238.205,310.301 237.993,312.483 235.863 C 314.717 233.682,315.883 233.215,319.126 233.204 C 321.099 233.198,321.826 232.636,323.021 230.193 C 324.220 227.742,325.321 226.816,328.000 226.003 C 330.384 225.281,331.195 224.534,331.222 223.038 C 331.267 220.490,332.478 218.362,335.000 216.398 L 337.400 214.530 337.400 210.965 L 337.400 207.400 339.100 205.264 C 341.033 202.836,341.110 202.392,340.000 200.094 C 339.556 199.176,339.200 197.620,339.200 196.600 C 339.200 195.580,339.556 194.024,340.000 193.106 C 341.110 190.808,341.033 190.364,339.100 187.936 L 337.400 185.800 337.455 182.271 L 337.510 178.743 334.982 176.756 C 332.390 174.719,331.439 173.006,331.119 169.800 C 331.027 168.872,330.683 168.453,329.600 167.954 C 324.438 165.571,324.269 165.448,323.168 163.296 C 321.534 160.103,321.395 160.000,318.731 160.000 C 315.853 160.000,314.345 159.305,312.143 156.962 C 310.529 155.245,309.284 154.826,307.700 155.465 M265.758 168.174 C 265.240 168.537,264.749 169.604,264.424 171.074 C 263.633 174.644,263.361 175.044,260.299 177.139 L 258.397 178.440 258.473 181.987 L 258.549 185.533 256.874 187.704 C 254.992 190.143,254.846 191.116,256.000 193.506 C 256.440 194.416,256.800 195.809,256.800 196.600 C 256.800 197.391,256.440 198.784,256.000 199.694 C 254.846 202.084,254.992 203.057,256.874 205.496 L 258.549 207.667 258.473 211.220 L 258.397 214.773 260.597 216.398 C 263.089 218.239,263.806 219.197,264.189 221.200 C 264.888 224.850,265.070 225.091,267.811 226.004 C 270.601 226.932,271.730 227.971,273.245 231.005 C 274.213 232.943,274.340 233.005,278.200 233.410 C 279.768 233.574,281.097 234.000,282.033 234.639 C 283.457 235.610,283.522 235.616,292.033 235.508 L 300.600 235.400 300.600 224.800 L 300.600 214.200 284.100 214.096 L 267.600 213.991 267.600 190.796 C 267.600 166.153,267.656 166.845,265.758 168.174 " stroke="none" fill="#fc944c" fill-rule="evenodd"></path><path id="path3" d="M9.443 150.233 C 9.077 151.185,9.163 241.722,9.530 242.301 C 9.784 242.700,39.827 242.781,158.424 242.701 L 307.000 242.600 307.202 240.063 C 307.313 238.668,307.277 237.447,307.121 237.351 C 306.966 237.255,306.785 238.307,306.719 239.688 L 306.600 242.200 158.200 242.200 L 9.800 242.200 9.800 196.200 L 9.800 150.200 49.200 149.997 L 88.600 149.794 49.143 149.697 C 13.475 149.609,9.662 149.661,9.443 150.233 M110.100 149.900 C 119.285 149.960,134.315 149.960,143.500 149.900 C 152.685 149.840,145.170 149.791,126.800 149.791 C 108.430 149.791,100.915 149.840,110.100 149.900 M183.130 149.900 C 193.102 149.959,209.302 149.959,219.130 149.900 C 228.959 149.840,220.800 149.792,201.000 149.792 C 181.200 149.792,173.159 149.840,183.130 149.900 M274.200 149.996 L 306.600 150.200 306.718 153.113 C 306.783 154.715,306.963 155.947,307.118 155.852 C 307.273 155.757,307.341 154.311,307.268 152.639 L 307.137 149.600 274.468 149.696 L 241.800 149.793 274.200 149.996 M54.900 155.897 C 56.385 155.974,58.815 155.974,60.300 155.897 C 61.785 155.820,60.570 155.757,57.600 155.757 C 54.630 155.757,53.415 155.820,54.900 155.897 M43.913 156.803 C 30.633 159.569,22.798 165.808,18.600 176.962 C 18.032 178.470,17.632 179.897,17.711 180.134 C 17.790 180.370,18.175 179.582,18.566 178.382 C 22.752 165.544,31.676 158.988,48.200 156.613 C 51.423 156.150,51.569 156.095,49.600 156.086 C 48.390 156.081,45.831 156.404,43.913 156.803 M65.000 156.423 C 65.880 156.605,67.050 156.746,67.600 156.737 L 68.600 156.720 67.600 156.400 C 67.050 156.224,65.880 156.083,65.000 156.086 L 63.400 156.092 65.000 156.423 M71.000 157.438 C 75.218 158.416,75.805 158.520,75.561 158.251 C 75.178 157.830,70.866 156.796,69.680 156.841 C 69.030 156.866,69.554 157.103,71.000 157.438 M95.298 196.100 L 95.400 235.400 107.200 235.400 L 119.000 235.400 119.107 224.900 L 119.213 214.400 121.208 214.400 L 123.202 214.400 128.437 225.000 L 133.672 235.600 146.836 235.600 L 160.000 235.600 160.000 233.946 C 160.000 232.316,159.776 231.826,155.007 223.000 C 154.294 221.680,153.055 219.385,152.255 217.900 C 151.455 216.415,150.170 214.048,149.400 212.640 C 147.659 209.455,147.670 209.275,149.715 207.790 C 152.755 205.583,156.857 199.016,156.779 196.481 C 156.768 196.107,156.345 196.911,155.841 198.269 C 154.302 202.409,149.265 208.800,147.541 208.800 C 146.912 208.800,147.443 210.000,150.802 216.179 C 152.538 219.372,154.987 223.924,156.244 226.293 C 157.501 228.662,158.770 230.955,159.065 231.389 C 159.359 231.823,159.600 232.858,159.600 233.689 L 159.600 235.200 146.786 235.200 L 133.972 235.200 128.686 224.500 L 123.400 213.800 121.469 213.677 C 118.307 213.475,118.400 213.136,118.400 224.855 L 118.400 235.212 107.100 235.106 L 95.800 235.000 95.698 196.064 L 95.596 157.128 114.824 157.264 C 125.399 157.339,133.635 157.283,133.126 157.140 C 132.617 156.997,123.874 156.862,113.698 156.840 L 95.196 156.800 95.298 196.100 M165.264 158.300 C 165.327 159.777,165.331 159.780,165.489 158.500 L 165.651 157.200 177.167 157.200 L 188.684 157.200 189.101 158.500 C 189.335 159.229,189.536 159.481,189.559 159.074 C 189.688 156.779,189.804 156.800,176.986 156.800 L 165.200 156.800 165.264 158.300 M213.079 157.094 C 212.711 157.735,210.323 167.657,210.496 167.829 C 210.595 167.929,211.168 166.073,211.768 163.705 C 212.368 161.337,212.996 158.950,213.163 158.400 L 213.466 157.400 225.103 157.294 C 235.275 157.201,236.763 157.265,236.929 157.802 C 237.065 158.241,237.100 158.215,237.054 157.708 C 236.985 156.957,213.503 156.356,213.079 157.094 M244.000 196.200 L 244.000 235.600 263.667 235.600 C 274.483 235.600,283.237 235.503,283.119 235.385 C 283.000 235.267,274.240 235.180,263.652 235.192 L 244.400 235.214 244.400 196.207 L 244.400 157.200 255.822 157.200 L 267.244 157.200 267.122 162.401 C 267.055 165.261,267.135 167.601,267.300 167.601 C 267.465 167.600,267.600 165.170,267.600 162.200 L 267.600 156.800 255.800 156.800 L 244.000 156.800 244.000 196.200 M135.800 158.023 C 140.411 159.010,141.666 159.407,144.634 160.820 C 149.956 163.353,153.742 167.507,155.918 173.200 C 156.380 174.410,156.768 175.035,156.779 174.589 C 156.810 173.383,153.786 167.706,152.115 165.833 C 148.151 161.392,140.232 157.491,135.480 157.640 C 134.250 157.679,134.263 157.694,135.800 158.023 M76.000 158.554 C 76.000 158.639,76.945 159.013,78.100 159.385 C 82.301 160.741,82.000 159.861,82.000 170.809 C 82.000 176.084,81.849 180.400,81.664 180.400 C 81.479 180.400,80.444 180.132,79.364 179.804 C 78.284 179.477,77.130 179.223,76.800 179.241 C 76.026 179.282,80.773 180.787,81.700 180.795 C 82.603 180.802,82.797 161.199,81.900 160.519 C 80.643 159.566,76.000 158.020,76.000 158.554 M235.713 162.441 C 235.247 164.069,234.508 166.570,234.072 168.000 C 230.401 180.014,229.568 182.902,229.728 183.061 C 229.829 183.162,230.220 182.200,230.597 180.922 C 230.974 179.645,231.432 178.150,231.615 177.600 C 231.798 177.050,232.512 174.710,233.200 172.400 C 233.888 170.090,234.608 167.750,234.799 167.200 C 235.906 164.008,236.867 160.402,236.725 159.976 C 236.635 159.705,236.180 160.814,235.713 162.441 M189.600 160.312 C 189.600 160.927,192.410 171.743,192.625 171.959 C 192.987 172.321,192.761 171.175,191.409 165.808 C 190.138 160.763,189.600 159.127,189.600 160.312 M165.636 160.925 C 165.591 161.826,166.900 165.905,167.067 165.382 C 167.134 165.172,166.848 163.920,166.431 162.600 C 166.014 161.280,165.657 160.526,165.636 160.925 M167.200 166.515 C 167.200 166.871,167.371 167.576,167.579 168.081 C 167.788 168.587,168.525 170.890,169.217 173.200 C 169.909 175.510,170.710 178.120,170.997 179.000 C 171.284 179.880,171.729 181.383,171.986 182.340 C 172.242 183.298,172.543 183.990,172.654 183.879 C 172.765 183.768,172.016 180.915,170.989 177.539 C 169.963 174.162,168.786 170.251,168.374 168.846 C 167.596 166.192,167.200 165.405,167.200 166.515 M209.799 169.400 C 209.634 170.060,208.982 172.637,208.349 175.127 C 207.236 179.513,207.010 180.723,207.375 180.359 C 207.722 180.011,210.419 169.057,210.261 168.634 C 210.172 168.395,209.964 168.740,209.799 169.400 M192.856 173.000 C 192.856 173.440,193.011 174.160,193.200 174.600 L 193.544 175.400 193.544 174.600 C 193.544 174.160,193.389 173.440,193.200 173.000 L 192.856 172.200 192.856 173.000 M156.868 176.400 C 156.887 178.050,157.517 179.756,157.532 178.200 C 157.538 177.540,157.389 176.640,157.200 176.200 C 156.887 175.473,156.857 175.491,156.868 176.400 M193.600 175.912 C 193.600 176.527,196.410 187.343,196.625 187.559 C 196.987 187.921,196.761 186.775,195.409 181.408 C 194.138 176.363,193.600 174.727,193.600 175.912 M52.600 177.172 C 51.940 177.324,54.730 177.450,58.800 177.451 C 63.358 177.452,65.509 177.338,64.400 177.156 C 62.162 176.787,54.218 176.798,52.600 177.172 M47.917 178.231 C 41.222 180.657,38.395 186.015,38.405 196.258 C 38.417 209.657,43.943 215.143,57.471 215.186 C 62.818 215.203,63.203 214.980,63.195 211.871 C 63.184 207.861,63.441 208.038,57.456 207.911 L 52.200 207.800 52.200 197.900 C 52.200 192.455,52.062 188.000,51.893 188.000 C 51.724 188.000,51.634 192.545,51.693 198.100 L 51.800 208.200 57.100 208.312 L 62.400 208.423 62.400 211.387 L 62.400 214.351 60.558 214.627 C 53.433 215.696,44.964 213.146,42.144 209.084 C 39.386 205.112,38.997 203.484,39.021 196.000 C 39.056 185.274,41.449 180.980,48.756 178.535 C 50.210 178.049,50.950 177.660,50.400 177.672 C 49.850 177.684,48.733 177.935,47.917 178.231 M67.400 178.000 C 68.060 178.168,69.320 178.305,70.200 178.305 C 71.717 178.305,71.738 178.290,70.600 178.000 C 69.940 177.832,68.680 177.695,67.800 177.695 C 66.283 177.695,66.262 177.710,67.400 178.000 M119.100 178.032 C 118.387 178.447,117.998 190.487,118.643 192.167 C 118.911 192.865,126.389 193.044,128.400 192.400 C 128.996 192.209,127.379 192.104,124.400 192.140 L 119.400 192.200 119.290 185.261 L 119.181 178.321 124.490 178.469 C 132.460 178.692,134.395 179.991,134.399 185.120 C 134.401 188.682,133.274 190.579,130.600 191.516 C 129.663 191.845,129.584 191.944,130.241 191.968 C 133.200 192.080,135.635 187.654,134.830 183.624 C 134.023 179.576,132.179 178.466,125.452 177.977 C 119.503 177.545,119.943 177.541,119.100 178.032 M72.800 178.800 C 73.350 178.976,74.340 179.120,75.000 179.120 C 76.167 179.120,76.172 179.111,75.200 178.800 C 74.650 178.624,73.660 178.480,73.000 178.480 C 71.833 178.480,71.828 178.489,72.800 178.800 M157.711 185.600 C 157.713 191.226,157.725 191.307,158.104 188.304 C 158.359 186.283,158.358 184.269,158.102 182.504 C 157.738 180.005,157.709 180.239,157.711 185.600 M16.978 182.178 C 16.827 182.981,16.804 183.737,16.926 183.860 C 17.048 183.982,17.272 183.425,17.422 182.622 C 17.573 181.819,17.596 181.063,17.474 180.940 C 17.352 180.818,17.128 181.375,16.978 182.178 M206.600 182.000 C 206.448 182.691,206.414 183.347,206.524 183.457 C 206.634 183.567,206.848 183.091,207.000 182.400 C 207.152 181.709,207.186 181.053,207.076 180.943 C 206.966 180.833,206.752 181.309,206.600 182.000 M228.613 185.813 C 227.753 188.774,228.099 189.120,229.013 186.213 C 229.399 184.986,229.616 183.883,229.495 183.761 C 229.373 183.640,228.977 184.563,228.613 185.813 M205.888 184.533 C 205.730 184.936,205.611 185.656,205.625 186.133 C 205.649 186.956,205.671 186.950,206.040 186.025 C 206.254 185.489,206.373 184.769,206.303 184.425 C 206.199 183.911,206.125 183.930,205.888 184.533 M16.290 185.550 C 16.131 186.293,16.021 187.643,16.047 188.550 C 16.092 190.151,16.104 190.134,16.460 188.000 C 16.887 185.435,16.747 183.423,16.290 185.550 M172.800 184.825 C 172.800 185.538,174.091 189.243,174.275 189.059 C 174.475 188.858,173.228 184.400,172.972 184.400 C 172.877 184.400,172.800 184.591,172.800 184.825 M204.999 188.200 C 204.834 188.860,204.182 191.437,203.549 193.927 C 202.448 198.263,202.210 199.530,202.562 199.167 C 202.903 198.814,205.613 187.843,205.460 187.433 C 205.371 187.195,205.164 187.540,204.999 188.200 M196.856 188.600 C 196.856 189.040,197.011 189.760,197.200 190.200 L 197.544 191.000 197.544 190.200 C 197.544 189.760,197.389 189.040,197.200 188.600 L 196.856 187.800 196.856 188.600 M227.600 188.835 C 227.600 189.009,226.557 192.570,225.239 196.900 C 221.417 209.447,220.768 211.701,220.928 211.861 C 221.029 211.962,221.420 211.000,221.797 209.722 C 222.174 208.445,222.632 206.950,222.815 206.400 C 222.998 205.850,223.712 203.510,224.400 201.200 C 225.088 198.890,225.808 196.550,225.999 196.000 C 227.155 192.666,228.080 189.147,227.858 188.925 C 227.716 188.783,227.600 188.742,227.600 188.835 M174.400 190.025 C 174.400 190.738,175.691 194.443,175.875 194.259 C 176.075 194.058,174.828 189.600,174.572 189.600 C 174.477 189.600,174.400 189.791,174.400 190.025 M15.758 196.200 C 15.758 199.280,15.821 200.487,15.897 198.882 C 15.973 197.278,15.973 194.758,15.896 193.282 C 15.819 191.807,15.757 193.120,15.758 196.200 M197.600 191.506 C 197.600 193.292,200.665 203.600,201.197 203.600 C 201.589 203.600,202.581 200.048,202.275 199.741 C 202.145 199.612,201.925 200.022,201.786 200.653 C 201.104 203.746,201.107 203.750,199.410 197.010 C 198.140 191.971,197.600 190.327,197.600 191.506 M157.054 193.554 C 156.900 194.518,156.858 195.391,156.961 195.494 C 157.230 195.763,157.715 192.945,157.507 192.322 C 157.412 192.036,157.208 192.590,157.054 193.554 M176.000 195.315 C 176.000 195.671,176.171 196.376,176.379 196.881 C 176.588 197.387,177.325 199.690,178.017 202.000 C 178.709 204.310,179.510 206.920,179.797 207.800 C 180.084 208.680,180.529 210.183,180.786 211.140 C 181.042 212.098,181.343 212.790,181.454 212.679 C 181.565 212.568,180.816 209.715,179.789 206.339 C 178.763 202.962,177.586 199.051,177.174 197.646 C 176.396 194.992,176.000 194.205,176.000 195.315 M16.046 203.923 C 16.021 204.870,16.191 206.490,16.425 207.523 C 16.658 208.555,17.036 210.210,17.264 211.200 C 18.955 218.542,23.867 226.137,29.427 230.006 C 32.686 232.274,39.658 235.244,41.566 235.178 C 41.915 235.166,40.609 234.626,38.664 233.979 C 25.821 229.704,19.037 220.919,16.595 205.400 C 16.192 202.838,16.083 202.544,16.046 203.923 M220.293 213.000 C 219.436 215.960,217.488 222.370,217.195 223.200 C 216.311 225.702,215.163 230.096,215.345 230.279 C 215.456 230.390,215.758 229.698,216.014 228.740 C 216.271 227.783,216.716 226.280,217.003 225.400 C 217.290 224.520,218.093 221.910,218.788 219.600 C 219.483 217.290,220.238 214.914,220.466 214.320 C 220.694 213.727,220.800 213.007,220.703 212.720 C 220.590 212.391,220.440 212.493,220.293 213.000 M181.600 213.625 C 181.600 214.338,182.891 218.043,183.075 217.859 C 183.275 217.658,182.028 213.200,181.772 213.200 C 181.677 213.200,181.600 213.391,181.600 213.625 M183.200 218.825 C 183.200 219.538,184.491 223.243,184.675 223.059 C 184.875 222.858,183.628 218.400,183.372 218.400 C 183.277 218.400,183.200 218.591,183.200 218.825 M184.827 223.916 C 184.812 224.200,185.181 225.640,185.647 227.116 C 186.112 228.592,186.892 231.060,187.379 232.600 L 188.265 235.400 200.879 235.506 C 210.675 235.588,213.579 235.498,213.876 235.106 C 214.392 234.426,215.307 231.174,215.054 230.921 C 214.943 230.810,214.643 231.502,214.387 232.460 C 213.613 235.353,214.365 235.200,200.942 235.200 L 188.783 235.200 188.412 234.300 C 188.208 233.805,187.483 231.510,186.799 229.200 C 185.463 224.683,184.870 223.095,184.827 223.916 M84.000 227.844 C 83.230 228.397,80.801 229.738,78.603 230.825 C 76.404 231.911,74.841 232.800,75.128 232.800 C 76.391 232.800,85.600 227.834,85.600 227.153 C 85.600 226.690,85.621 226.681,84.000 227.844 M71.531 233.588 C 70.503 233.979,68.973 234.441,68.131 234.615 C 67.230 234.801,66.887 234.998,67.297 235.095 C 68.039 235.268,73.540 233.703,74.180 233.137 C 74.784 232.602,73.585 232.806,71.531 233.588 M43.200 235.600 C 43.750 235.776,44.830 235.917,45.600 235.913 L 47.000 235.905 45.800 235.600 C 44.039 235.152,41.801 235.152,43.200 235.600 M63.200 235.600 C 62.291 235.891,62.327 235.921,63.600 235.932 C 64.370 235.938,65.360 235.789,65.800 235.600 C 66.882 235.135,64.652 235.135,63.200 235.600 M48.800 236.429 C 51.113 236.830,58.071 236.831,60.400 236.432 C 61.552 236.235,59.465 236.122,54.600 236.120 C 49.704 236.118,47.640 236.228,48.800 236.429 " stroke="none" fill="#c4b196" fill-rule="evenodd"></path><path id="path4" d="M9.384 149.626 C 9.239 149.861,9.228 150.161,9.360 150.293 C 9.492 150.425,9.600 150.323,9.600 150.067 C 9.600 149.712,45.290 149.600,158.377 149.600 L 307.154 149.600 307.316 151.203 L 307.478 152.806 307.439 151.103 L 307.400 149.400 158.524 149.299 C 53.296 149.228,9.570 149.324,9.384 149.626 M54.500 156.297 C 56.205 156.372,58.995 156.372,60.700 156.297 C 62.405 156.222,61.010 156.161,57.600 156.161 C 54.190 156.161,52.795 156.222,54.500 156.297 M46.800 156.800 L 45.000 157.080 46.600 157.100 C 47.480 157.111,48.650 156.976,49.200 156.800 C 50.463 156.395,49.402 156.395,46.800 156.800 M65.400 156.797 C 66.164 157.128,69.114 157.355,68.767 157.056 C 68.675 156.977,67.700 156.809,66.600 156.682 C 65.313 156.533,64.885 156.574,65.400 156.797 M42.400 157.600 C 41.016 157.891,41.014 157.895,42.200 157.941 C 42.860 157.967,43.670 157.813,44.000 157.600 C 44.666 157.170,44.445 157.170,42.400 157.600 M70.200 157.581 C 70.968 157.929,73.110 158.156,72.767 157.853 C 72.675 157.772,71.880 157.596,71.000 157.462 C 69.885 157.293,69.642 157.329,70.200 157.581 M95.797 196.000 L 95.800 235.000 107.100 235.106 L 118.400 235.212 118.400 224.855 C 118.400 213.136,118.307 213.475,121.469 213.677 L 123.400 213.800 125.056 217.122 C 125.966 218.950,126.850 220.570,127.020 220.722 C 127.189 220.875,127.244 220.820,127.140 220.600 C 123.727 213.339,123.615 213.200,121.167 213.200 C 117.945 213.200,118.000 213.001,118.000 224.629 L 118.000 234.800 107.002 234.800 L 96.004 234.800 95.899 195.900 L 95.794 157.000 95.797 196.000 M127.500 157.482 C 127.995 157.578,128.805 157.578,129.300 157.482 C 129.795 157.387,129.390 157.309,128.400 157.309 C 127.410 157.309,127.005 157.387,127.500 157.482 M165.709 158.800 C 165.709 159.790,165.787 160.195,165.882 159.700 C 165.978 159.205,165.978 158.395,165.882 157.900 C 165.787 157.405,165.709 157.810,165.709 158.800 M236.493 158.400 C 236.493 159.170,236.575 159.485,236.676 159.100 C 236.776 158.715,236.776 158.085,236.676 157.700 C 236.575 157.315,236.493 157.630,236.493 158.400 M266.946 161.000 C 266.947 163.200,267.014 164.049,267.095 162.887 C 267.176 161.724,267.176 159.924,267.093 158.887 C 267.011 157.849,266.945 158.800,266.946 161.000 M131.300 157.887 C 131.905 157.978,132.895 157.978,133.500 157.887 C 134.105 157.795,133.610 157.720,132.400 157.720 C 131.190 157.720,130.695 157.795,131.300 157.887 M39.200 158.400 C 38.376 158.664,38.341 158.726,39.000 158.754 C 39.440 158.773,40.070 158.613,40.400 158.400 C 41.101 157.947,40.614 157.947,39.200 158.400 M73.600 158.394 C 73.930 158.611,74.635 158.791,75.167 158.794 C 76.451 158.802,76.125 158.575,74.400 158.258 C 73.415 158.077,73.178 158.118,73.600 158.394 M135.800 158.390 C 136.564 158.728,139.114 158.957,138.767 158.656 C 138.675 158.576,137.790 158.404,136.800 158.273 C 135.598 158.114,135.266 158.153,135.800 158.390 M212.752 159.913 C 212.621 160.707,212.679 161.081,212.901 160.859 C 213.103 160.657,213.201 160.067,213.119 159.546 C 212.993 158.745,212.937 158.802,212.752 159.913 M189.206 160.433 C 189.209 160.965,189.389 161.670,189.606 162.000 C 189.882 162.422,189.923 162.185,189.742 161.200 C 189.425 159.475,189.198 159.149,189.206 160.433 M31.376 161.824 C 30.069 162.608,28.730 163.525,28.400 163.863 C 27.894 164.381,29.346 163.536,33.451 160.924 C 35.220 159.798,33.542 160.526,31.376 161.824 M81.100 160.799 C 81.470 161.214,81.600 163.788,81.600 170.670 L 81.600 179.980 80.300 179.795 C 79.156 179.633,79.120 179.653,80.000 179.966 C 82.075 180.702,82.000 181.043,82.000 170.849 C 82.000 162.221,81.932 161.247,81.300 160.768 C 80.704 160.318,80.675 160.322,81.100 160.799 M145.600 161.336 C 145.600 161.435,146.495 162.091,147.589 162.793 C 148.683 163.495,150.134 164.703,150.814 165.477 C 151.493 166.251,152.134 166.799,152.239 166.695 C 152.499 166.434,148.400 162.763,146.858 161.877 C 146.166 161.480,145.600 161.236,145.600 161.336 M212.046 162.467 C 212.021 162.834,211.896 163.464,211.770 163.867 C 211.552 164.562,211.563 164.563,211.997 163.887 C 212.248 163.496,212.373 162.866,212.273 162.487 C 212.111 161.868,212.088 161.866,212.046 162.467 M190.006 163.633 C 190.009 164.165,190.189 164.870,190.406 165.200 C 190.682 165.622,190.723 165.385,190.542 164.400 C 190.225 162.675,189.998 162.349,190.006 163.633 M235.049 163.415 C 234.912 163.773,234.815 164.366,234.834 164.733 C 234.853 165.100,235.027 164.869,235.221 164.220 C 235.598 162.958,235.465 162.333,235.049 163.415 M167.044 164.600 C 167.373 166.071,167.602 166.390,167.594 165.367 C 167.591 164.945,167.405 164.330,167.182 164.000 C 166.885 163.562,166.848 163.724,167.044 164.600 M25.793 166.007 C 24.937 166.883,24.349 167.600,24.484 167.600 C 24.859 167.600,27.699 164.765,27.511 164.578 C 27.422 164.488,26.648 165.131,25.793 166.007 M211.246 165.667 C 211.221 166.034,211.096 166.664,210.970 167.067 C 210.752 167.762,210.763 167.763,211.197 167.087 C 211.448 166.696,211.573 166.066,211.473 165.687 C 211.311 165.068,211.288 165.066,211.246 165.667 M190.800 166.976 C 190.800 167.513,190.947 168.044,191.128 168.155 C 191.308 168.267,191.377 167.827,191.282 167.179 C 191.072 165.749,190.800 165.635,190.800 166.976 M22.504 170.300 C 21.665 171.565,20.722 173.140,20.408 173.800 C 20.094 174.460,19.774 175.135,19.695 175.300 C 19.617 175.465,19.645 175.600,19.758 175.600 C 19.870 175.600,20.275 174.925,20.656 174.100 C 21.037 173.275,22.043 171.565,22.890 170.300 C 23.737 169.035,24.340 168.000,24.230 168.000 C 24.120 168.000,23.343 169.035,22.504 170.300 M210.454 168.667 C 210.425 169.144,210.296 169.864,210.170 170.267 C 209.952 170.961,209.964 170.962,210.396 170.288 C 210.647 169.897,210.775 169.177,210.681 168.688 C 210.509 167.801,210.509 167.801,210.454 168.667 M233.449 168.615 C 233.312 168.973,233.215 169.566,233.234 169.933 C 233.253 170.300,233.427 170.069,233.621 169.420 C 233.998 168.158,233.865 167.533,233.449 168.615 M168.644 169.800 C 168.973 171.271,169.202 171.590,169.194 170.567 C 169.191 170.145,169.005 169.530,168.782 169.200 C 168.485 168.762,168.448 168.924,168.644 169.800 M191.606 169.833 C 191.609 170.255,191.795 170.870,192.018 171.200 C 192.315 171.638,192.352 171.476,192.156 170.600 C 191.827 169.129,191.598 168.810,191.606 169.833 M154.000 169.650 C 154.000 169.998,155.237 172.400,155.417 172.400 C 155.504 172.400,155.461 172.085,155.321 171.700 C 155.033 170.906,154.000 169.303,154.000 169.650 M209.654 171.867 C 209.625 172.344,209.496 173.064,209.370 173.467 C 209.152 174.161,209.164 174.162,209.596 173.488 C 209.847 173.097,209.975 172.377,209.881 171.888 C 209.709 171.001,209.709 171.001,209.654 171.867 M192.406 172.833 C 192.409 173.365,192.589 174.070,192.806 174.400 C 193.082 174.822,193.123 174.585,192.942 173.600 C 192.625 171.875,192.398 171.549,192.406 172.833 M170.244 175.000 C 170.573 176.471,170.802 176.790,170.794 175.767 C 170.791 175.345,170.605 174.730,170.382 174.400 C 170.085 173.962,170.048 174.124,170.244 175.000 M208.752 175.513 C 208.621 176.307,208.679 176.681,208.901 176.459 C 209.103 176.257,209.201 175.667,209.119 175.146 C 208.993 174.345,208.937 174.402,208.752 175.513 M156.406 176.233 C 156.409 176.875,156.584 177.670,156.795 178.000 C 157.055 178.409,157.099 178.090,156.932 177.000 C 156.629 175.023,156.398 174.686,156.406 176.233 M193.206 176.033 C 193.209 176.565,193.389 177.270,193.606 177.600 C 193.882 178.022,193.923 177.785,193.742 176.800 C 193.425 175.075,193.198 174.749,193.206 176.033 M53.337 176.706 C 53.082 176.868,54.612 176.950,56.737 176.888 C 62.739 176.714,63.455 176.534,58.400 176.470 C 55.870 176.438,53.592 176.544,53.337 176.706 M49.052 177.516 C 48.944 177.690,49.473 177.761,50.228 177.673 C 50.983 177.585,51.600 177.442,51.600 177.356 C 51.600 177.055,49.245 177.203,49.052 177.516 M66.033 177.345 C 66.125 177.424,67.280 177.587,68.600 177.707 C 70.049 177.838,70.683 177.792,70.200 177.590 C 69.430 177.269,65.693 177.049,66.033 177.345 M118.480 178.080 C 117.867 178.693,117.809 191.296,118.414 192.426 C 118.842 193.227,126.322 193.571,128.085 192.872 C 128.462 192.722,126.595 192.665,123.936 192.744 C 120.176 192.855,119.025 192.766,118.757 192.344 C 118.024 191.188,118.329 178.481,119.100 178.032 C 119.485 177.808,119.611 177.619,119.380 177.612 C 119.149 177.605,118.744 177.816,118.480 178.080 M123.491 177.889 C 124.201 177.977,125.461 177.979,126.291 177.892 C 127.121 177.805,126.540 177.733,125.000 177.731 C 123.460 177.729,122.781 177.800,123.491 177.889 M208.046 178.067 C 208.021 178.434,207.896 179.064,207.770 179.467 C 207.552 180.162,207.563 180.163,207.997 179.487 C 208.248 179.096,208.373 178.466,208.273 178.087 C 208.111 177.468,208.088 177.466,208.046 178.067 M71.633 178.145 C 71.725 178.225,72.601 178.392,73.579 178.518 C 74.730 178.665,75.154 178.616,74.779 178.379 C 74.245 178.040,71.258 177.819,71.633 178.145 M129.000 178.197 C 129.220 178.270,129.892 178.438,130.493 178.571 C 131.841 178.868,134.389 181.048,134.432 181.941 C 134.454 182.404,134.526 182.442,134.676 182.068 C 135.135 180.917,131.369 177.968,129.520 178.032 C 129.014 178.049,128.780 178.123,129.000 178.197 M194.000 179.376 C 194.000 179.913,194.147 180.444,194.328 180.555 C 194.508 180.667,194.577 180.227,194.482 179.579 C 194.272 178.149,194.000 178.035,194.000 179.376 M44.576 179.550 C 43.262 180.351,40.400 183.492,40.400 184.132 C 40.400 184.345,40.921 183.801,41.557 182.923 C 42.642 181.425,43.697 180.452,45.457 179.324 C 46.676 178.542,45.902 178.741,44.576 179.550 M76.033 178.943 C 76.125 179.021,76.830 179.201,77.600 179.342 C 78.585 179.523,78.822 179.482,78.400 179.206 C 77.858 178.850,75.637 178.603,76.033 178.943 M157.363 185.600 C 157.363 189.230,157.423 190.715,157.498 188.900 C 157.572 187.085,157.572 184.115,157.498 182.300 C 157.423 180.485,157.363 181.970,157.363 185.600 M171.844 180.200 C 172.173 181.671,172.402 181.990,172.394 180.967 C 172.391 180.545,172.205 179.930,171.982 179.600 C 171.685 179.162,171.648 179.324,171.844 180.200 M17.660 181.267 C 17.627 181.854,17.496 182.664,17.370 183.067 C 17.152 183.760,17.165 183.761,17.595 183.090 C 17.846 182.699,17.977 181.889,17.886 181.290 L 17.720 180.200 17.660 181.267 M207.254 181.067 C 207.225 181.544,207.096 182.264,206.970 182.667 C 206.752 183.361,206.764 183.362,207.196 182.688 C 207.447 182.297,207.575 181.577,207.481 181.088 C 207.309 180.201,207.309 180.201,207.254 181.067 M229.449 181.815 C 229.312 182.173,229.215 182.766,229.234 183.133 C 229.253 183.500,229.427 183.269,229.621 182.620 C 229.998 181.358,229.865 180.733,229.449 181.815 M194.800 182.576 C 194.800 183.113,194.947 183.644,195.128 183.755 C 195.308 183.867,195.377 183.427,195.282 182.779 C 195.072 181.349,194.800 181.235,194.800 182.576 M172.644 183.000 C 172.973 184.471,173.202 184.790,173.194 183.767 C 173.191 183.345,173.005 182.730,172.782 182.400 C 172.485 181.962,172.448 182.124,172.644 183.000 M134.971 185.345 C 134.971 187.269,135.036 187.493,135.332 186.603 C 135.547 185.960,135.547 185.010,135.332 184.263 C 135.016 183.159,134.971 183.291,134.971 185.345 M206.454 184.267 C 206.425 184.744,206.296 185.464,206.170 185.867 C 205.952 186.561,205.964 186.562,206.396 185.888 C 206.647 185.497,206.775 184.777,206.681 184.288 C 206.509 183.401,206.509 183.401,206.454 184.267 M16.864 185.050 C 16.829 185.738,16.711 186.908,16.601 187.650 L 16.403 189.000 16.824 187.658 C 17.055 186.920,17.173 185.750,17.086 185.058 L 16.928 183.800 16.864 185.050 M195.606 185.433 C 195.609 185.855,195.795 186.470,196.018 186.800 C 196.315 187.238,196.352 187.076,196.156 186.200 C 195.827 184.729,195.598 184.410,195.606 185.433 M39.049 187.015 C 38.912 187.373,38.815 187.966,38.834 188.333 C 38.853 188.700,39.027 188.469,39.221 187.820 C 39.598 186.558,39.465 185.933,39.049 187.015 M227.849 187.015 C 227.712 187.373,227.615 187.966,227.634 188.333 C 227.653 188.700,227.827 188.469,228.021 187.820 C 228.398 186.558,228.265 185.933,227.849 187.015 M205.654 187.467 C 205.625 187.944,205.496 188.664,205.370 189.067 C 205.152 189.761,205.164 189.762,205.596 189.088 C 205.847 188.697,205.975 187.977,205.881 187.488 C 205.709 186.601,205.709 186.601,205.654 187.467 M174.244 188.200 C 174.573 189.671,174.802 189.990,174.794 188.967 C 174.791 188.545,174.605 187.930,174.382 187.600 C 174.085 187.162,174.048 187.324,174.244 188.200 M196.406 188.433 C 196.409 188.965,196.589 189.670,196.806 190.000 C 197.082 190.422,197.123 190.185,196.942 189.200 C 196.625 187.475,196.398 187.149,196.406 188.433 M52.182 188.504 C 52.073 188.786,52.033 193.243,52.092 198.408 L 52.200 207.800 57.456 207.911 C 63.441 208.038,63.184 207.861,63.195 211.871 C 63.203 215.113,62.861 215.286,56.777 215.131 C 53.969 215.059,51.881 215.132,52.136 215.294 C 53.300 216.031,61.970 215.630,62.800 214.800 C 63.692 213.908,63.919 210.491,63.210 208.626 L 62.820 207.600 57.610 207.600 L 52.400 207.600 52.400 198.000 L 52.400 188.400 68.800 188.400 L 85.200 188.400 85.200 207.520 C 85.200 222.250,85.085 226.769,84.700 227.201 C 84.274 227.678,84.305 227.682,84.904 227.229 C 85.561 226.731,85.601 225.421,85.504 207.448 L 85.400 188.200 68.889 188.096 C 55.755 188.012,52.338 188.096,52.182 188.504 M38.243 190.233 C 37.897 191.133,37.953 201.707,38.306 202.262 C 38.468 202.516,38.600 199.771,38.600 196.162 C 38.600 192.553,38.574 189.600,38.543 189.600 C 38.511 189.600,38.376 189.885,38.243 190.233 M16.162 196.200 C 16.162 199.720,16.224 201.106,16.298 199.281 C 16.372 197.456,16.372 194.576,16.297 192.881 C 16.222 191.186,16.161 192.680,16.162 196.200 M204.854 190.667 C 204.825 191.144,204.696 191.864,204.570 192.267 C 204.352 192.961,204.364 192.962,204.796 192.288 C 205.047 191.897,205.175 191.177,205.081 190.688 C 204.909 189.801,204.909 189.801,204.854 190.667 M197.206 191.633 C 197.209 192.165,197.389 192.870,197.606 193.200 C 197.882 193.622,197.923 193.385,197.742 192.400 C 197.425 190.675,197.198 190.349,197.206 191.633 M130.200 192.000 L 129.000 192.305 130.076 192.353 C 130.668 192.379,131.264 192.220,131.400 192.000 C 131.536 191.780,131.592 191.621,131.524 191.647 C 131.456 191.673,130.860 191.832,130.200 192.000 M226.249 192.215 C 226.112 192.573,226.015 193.166,226.034 193.533 C 226.053 193.900,226.227 193.669,226.421 193.020 C 226.798 191.758,226.665 191.133,226.249 192.215 M175.844 193.400 C 176.173 194.871,176.402 195.190,176.394 194.167 C 176.391 193.745,176.205 193.130,175.982 192.800 C 175.685 192.362,175.648 192.524,175.844 193.400 M156.656 193.684 C 156.521 194.188,156.427 194.960,156.446 195.400 C 156.465 195.840,156.645 195.498,156.846 194.640 C 157.236 192.978,157.070 192.140,156.656 193.684 M204.046 193.667 C 204.021 194.034,203.896 194.664,203.770 195.067 C 203.552 195.762,203.563 195.763,203.997 195.087 C 204.248 194.696,204.373 194.066,204.273 193.687 C 204.111 193.068,204.088 193.066,204.046 193.667 M198.006 194.833 C 198.009 195.365,198.189 196.070,198.406 196.400 C 198.682 196.822,198.723 196.585,198.542 195.600 C 198.225 193.875,197.998 193.549,198.006 194.833 M203.246 196.867 C 203.221 197.234,203.096 197.864,202.970 198.267 C 202.752 198.962,202.763 198.963,203.197 198.287 C 203.448 197.896,203.573 197.266,203.473 196.887 C 203.311 196.268,203.288 196.266,203.246 196.867 M224.649 197.415 C 224.512 197.773,224.415 198.366,224.434 198.733 C 224.453 199.100,224.627 198.869,224.821 198.220 C 225.198 196.958,225.065 196.333,224.649 197.415 M198.800 198.176 C 198.800 198.713,198.947 199.244,199.128 199.355 C 199.308 199.467,199.377 199.027,199.282 198.379 C 199.072 196.949,198.800 196.835,198.800 198.176 M177.444 198.600 C 177.773 200.071,178.002 200.390,177.994 199.367 C 177.991 198.945,177.805 198.330,177.582 198.000 C 177.285 197.562,177.248 197.724,177.444 198.600 M202.454 199.867 C 202.425 200.344,202.296 201.064,202.170 201.467 C 201.952 202.161,201.964 202.162,202.396 201.488 C 202.647 201.097,202.775 200.377,202.681 199.888 C 202.509 199.001,202.509 199.001,202.454 199.867 M199.618 200.886 C 199.596 201.729,200.835 204.400,201.247 204.400 C 201.643 204.400,202.139 202.806,201.837 202.503 C 201.706 202.373,201.600 202.567,201.600 202.933 C 201.600 203.440,200.823 203.986,200.794 203.500 C 200.757 202.883,199.630 200.381,199.618 200.886 M153.220 202.769 C 151.971 204.716,149.505 207.213,147.638 208.424 C 146.815 208.957,146.745 209.161,147.157 209.824 C 147.622 210.573,147.631 210.572,147.414 209.770 C 147.249 209.157,147.463 208.795,148.234 208.382 C 149.493 207.708,153.119 203.817,154.123 202.063 C 155.251 200.090,154.624 200.581,153.220 202.769 M16.681 205.600 C 16.806 206.810,16.974 207.875,17.054 207.967 C 17.335 208.287,17.117 205.391,16.787 204.400 C 16.571 203.754,16.534 204.180,16.681 205.600 M40.400 207.868 C 40.400 209.213,46.045 214.023,47.578 213.984 C 47.920 213.976,47.578 213.699,46.818 213.369 C 44.819 212.502,42.915 210.952,41.573 209.099 C 40.928 208.208,40.400 207.655,40.400 207.868 M180.644 209.000 C 180.973 210.471,181.202 210.790,181.194 209.767 C 181.191 209.345,181.005 208.730,180.782 208.400 C 180.485 207.962,180.448 208.124,180.644 209.000 M17.458 210.000 C 17.775 211.725,18.002 212.051,17.994 210.767 C 17.991 210.235,17.811 209.530,17.594 209.200 C 17.318 208.778,17.277 209.015,17.458 210.000 M220.649 210.615 C 220.512 210.973,220.415 211.566,220.434 211.933 C 220.453 212.300,220.627 212.069,220.821 211.420 C 221.198 210.158,221.065 209.533,220.649 210.615 M148.200 212.000 C 148.541 212.660,148.911 213.200,149.021 213.200 C 149.131 213.200,148.941 212.660,148.600 212.000 C 148.259 211.340,147.889 210.800,147.779 210.800 C 147.669 210.800,147.859 211.340,148.200 212.000 M181.444 211.800 C 181.773 213.271,182.002 213.590,181.994 212.567 C 181.991 212.145,181.805 211.530,181.582 211.200 C 181.285 210.762,181.248 210.924,181.444 211.800 M18.244 213.000 C 18.573 214.471,18.802 214.790,18.794 213.767 C 18.791 213.345,18.605 212.730,18.382 212.400 C 18.085 211.962,18.048 212.124,18.244 213.000 M48.741 214.501 C 48.943 214.703,49.533 214.801,50.054 214.719 C 50.855 214.593,50.798 214.537,49.687 214.352 C 48.893 214.221,48.519 214.279,48.741 214.501 M150.006 215.250 C 149.997 215.605,152.033 219.200,152.242 219.200 C 152.338 219.200,152.060 218.525,151.624 217.700 C 150.678 215.911,150.015 214.906,150.006 215.250 M219.049 215.815 C 218.912 216.173,218.815 216.766,218.834 217.133 C 218.853 217.500,219.027 217.269,219.221 216.620 C 219.598 215.358,219.465 214.733,219.049 215.815 M183.044 217.000 C 183.373 218.471,183.602 218.790,183.594 217.767 C 183.591 217.345,183.405 216.730,183.182 216.400 C 182.885 215.962,182.848 216.124,183.044 217.000 M19.879 217.500 C 20.167 218.294,21.200 219.897,21.200 219.550 C 21.200 219.202,19.963 216.800,19.783 216.800 C 19.696 216.800,19.739 217.115,19.879 217.500 M152.406 219.650 C 152.397 220.005,154.433 223.600,154.642 223.600 C 154.738 223.600,154.460 222.925,154.024 222.100 C 153.078 220.311,152.415 219.306,152.406 219.650 M21.872 221.127 C 24.398 225.729,30.374 230.889,35.383 232.794 C 37.236 233.498,36.439 232.935,33.500 231.463 C 29.664 229.541,26.210 226.692,24.000 223.624 C 21.472 220.116,21.036 219.604,21.872 221.127 M217.449 221.015 C 217.312 221.373,217.215 221.966,217.234 222.333 C 217.253 222.700,217.427 222.469,217.621 221.820 C 217.998 220.558,217.865 219.933,217.449 221.015 M127.236 221.400 C 127.236 221.620,127.670 222.610,128.200 223.600 C 128.730 224.590,129.164 225.220,129.164 225.000 C 129.164 224.780,128.730 223.790,128.200 222.800 C 127.670 221.810,127.236 221.180,127.236 221.400 M184.644 222.200 C 184.973 223.671,185.202 223.990,185.194 222.967 C 185.191 222.545,185.005 221.930,184.782 221.600 C 184.485 221.162,184.448 221.324,184.644 222.200 M154.800 224.121 C 154.800 224.498,156.410 227.337,156.887 227.800 C 157.114 228.020,156.808 227.300,156.207 226.200 C 155.051 224.082,154.800 223.711,154.800 224.121 M215.849 226.215 C 215.712 226.573,215.615 227.166,215.634 227.533 C 215.653 227.900,215.827 227.669,216.021 227.020 C 216.398 225.758,216.265 225.133,215.849 226.215 M186.244 227.400 C 186.573 228.871,186.802 229.190,186.794 228.167 C 186.791 227.745,186.605 227.130,186.382 226.800 C 186.085 226.362,186.048 226.524,186.244 227.400 M81.200 229.236 C 80.536 229.779,80.469 229.915,81.000 229.640 C 82.305 228.966,83.028 228.412,82.600 228.415 C 82.380 228.417,81.750 228.786,81.200 229.236 M215.049 229.015 C 214.912 229.373,214.815 229.966,214.834 230.333 C 214.853 230.700,215.027 230.469,215.221 229.820 C 215.598 228.558,215.465 227.933,215.049 229.015 M158.003 230.090 C 158.001 230.250,158.359 230.970,158.799 231.690 C 159.238 232.411,159.596 232.820,159.596 232.600 C 159.595 232.380,159.237 231.660,158.800 231.000 C 158.363 230.340,158.004 229.931,158.003 230.090 M74.519 232.162 C 73.815 232.418,73.116 232.751,72.965 232.902 C 72.663 233.204,74.436 232.716,76.000 232.066 C 77.362 231.500,76.115 231.581,74.519 232.162 M274.765 233.326 C 274.944 233.505,275.881 233.591,276.846 233.518 L 278.600 233.385 276.519 233.193 C 275.375 233.087,274.585 233.147,274.765 233.326 M318.105 233.487 C 318.714 233.579,319.614 233.577,320.105 233.482 C 320.597 233.387,320.100 233.311,319.000 233.314 C 317.900 233.317,317.497 233.395,318.105 233.487 M133.592 234.300 L 134.028 235.200 146.914 235.106 L 159.800 235.012 147.040 234.900 C 135.491 234.799,134.226 234.723,133.718 234.094 C 133.213 233.471,133.200 233.492,133.592 234.300 M213.458 234.194 C 213.244 234.750,211.788 234.810,200.846 234.711 C 194.042 234.650,188.559 234.735,188.662 234.900 C 189.062 235.547,213.061 235.249,213.608 234.590 C 213.886 234.255,214.021 233.887,213.906 233.773 C 213.792 233.659,213.590 233.848,213.458 234.194 M39.233 234.144 C 39.325 234.223,39.940 234.408,40.600 234.556 C 41.476 234.752,41.638 234.715,41.200 234.418 C 40.660 234.053,38.832 233.798,39.233 234.144 M67.600 234.406 C 67.178 234.682,67.415 234.723,68.400 234.542 C 70.125 234.225,70.451 233.998,69.167 234.006 C 68.635 234.009,67.930 234.189,67.600 234.406 M42.033 234.945 C 42.125 235.025,43.001 235.192,43.979 235.318 C 45.130 235.465,45.554 235.416,45.179 235.179 C 44.645 234.840,41.658 234.619,42.033 234.945 M63.621 235.179 C 63.246 235.416,63.670 235.465,64.821 235.318 C 65.799 235.192,66.675 235.025,66.767 234.945 C 67.142 234.619,64.155 234.840,63.621 235.179 M251.300 235.099 C 255.205 235.165,261.595 235.165,265.500 235.099 C 269.405 235.034,266.210 234.980,258.400 234.980 C 250.590 234.980,247.395 235.034,251.300 235.099 M50.800 235.976 C 53.110 236.099,56.710 236.102,58.800 235.981 C 61.333 235.835,59.933 235.761,54.600 235.757 C 48.779 235.754,47.744 235.813,50.800 235.976 M309.400 238.000 L 308.200 238.305 309.276 238.353 C 309.868 238.379,310.464 238.220,310.600 238.000 C 310.736 237.780,310.792 237.621,310.724 237.647 C 310.656 237.673,310.060 237.832,309.400 238.000 M307.173 241.400 L 307.000 242.600 158.424 242.701 C 39.842 242.781,9.776 242.700,9.493 242.301 C 9.231 241.929,9.181 241.955,9.303 242.400 C 9.547 243.295,306.439 243.517,307.181 242.623 C 307.445 242.304,307.590 241.629,307.504 241.122 C 307.367 240.322,307.323 240.358,307.173 241.400 " stroke="none" fill="#d4ccba" fill-rule="evenodd"></path></g></svg>